<svg xmlns="http://www.w3.org/2000/svg" xmlns:xlink="http://www.w3.org/1999/xlink" width="1280" zoomAndPan="magnify" viewBox="0 0 960 809.999993" height="1080" preserveAspectRatio="xMidYMid meet" version="1.0"><defs><g/></defs><g fill="#ffc1b2" fill-opacity="0.302"><g transform="translate(179.322218, 396.640113)"><g><path d="M 37.824219 -1.089844 L 37.738281 -1.132812 C 37.042969 -1.871094 36.738281 -2.742188 36.738281 -3.785156 L 36.738281 -39.480469 C 36.738281 -40.480469 37.042969 -41.351562 37.738281 -42.132812 L 37.824219 -42.179688 C 37.957031 -42.394531 37.957031 -42.613281 37.824219 -42.875 C 37.695312 -43.136719 37.519531 -43.265625 37.257812 -43.265625 L 27.597656 -43.265625 C 27.335938 -43.265625 27.117188 -43.136719 26.988281 -42.875 C 26.855469 -42.613281 26.855469 -42.394531 27.03125 -42.179688 L 27.074219 -42.179688 C 27.769531 -41.394531 28.117188 -40.480469 28.117188 -39.523438 L 28.117188 -27.378906 C 28.117188 -26.941406 27.945312 -26.59375 27.683594 -26.332031 C 27.378906 -26.074219 27.03125 -25.941406 26.636719 -25.941406 L 16.539062 -25.941406 C 16.105469 -25.941406 15.757812 -26.074219 15.496094 -26.332031 C 15.191406 -26.59375 15.058594 -26.941406 15.058594 -27.378906 L 15.058594 -39.566406 C 15.058594 -40.523438 15.410156 -41.394531 16.105469 -42.179688 C 16.234375 -42.394531 16.234375 -42.613281 16.148438 -42.875 C 16.019531 -43.136719 15.800781 -43.265625 15.539062 -43.265625 L 5.917969 -43.265625 C 5.613281 -43.265625 5.398438 -43.136719 5.308594 -42.875 C 5.179688 -42.613281 5.179688 -42.394531 5.355469 -42.179688 L 5.441406 -42.089844 C 6.09375 -41.351562 6.441406 -40.480469 6.441406 -39.480469 L 6.441406 -3.832031 C 6.441406 -2.785156 6.09375 -1.871094 5.441406 -1.175781 L 5.355469 -1.089844 C 5.179688 -0.828125 5.179688 -0.609375 5.308594 -0.347656 C 5.398438 -0.0859375 5.613281 0 5.917969 0 L 15.539062 0 C 15.800781 0 16.019531 -0.0859375 16.148438 -0.347656 C 16.234375 -0.609375 16.234375 -0.828125 16.105469 -1.089844 C 15.410156 -1.871094 15.058594 -2.742188 15.058594 -3.742188 L 15.058594 -15.886719 C 15.058594 -16.277344 15.191406 -16.628906 15.496094 -16.886719 C 15.757812 -17.148438 16.105469 -17.324219 16.539062 -17.324219 L 26.636719 -17.324219 C 27.03125 -17.324219 27.378906 -17.148438 27.683594 -16.886719 C 27.945312 -16.628906 28.117188 -16.277344 28.117188 -15.886719 L 28.117188 -3.742188 C 28.117188 -2.742188 27.769531 -1.871094 27.074219 -1.132812 L 27.03125 -1.089844 C 26.855469 -0.828125 26.855469 -0.609375 26.988281 -0.347656 C 27.117188 -0.0859375 27.335938 0 27.597656 0 L 37.257812 0 C 37.519531 0 37.695312 -0.0859375 37.824219 -0.347656 C 37.957031 -0.609375 37.957031 -0.828125 37.824219 -1.089844 Z M 37.824219 -1.089844 "/></g></g></g><g fill="#ffc1b2" fill-opacity="0.302"><g transform="translate(222.501523, 396.640113)"><g><path d="M 31.6875 -43.570312 C 30.949219 -42.875 30.078125 -42.570312 29.121094 -42.570312 L 5.917969 -42.570312 C 5.613281 -42.570312 5.398438 -42.4375 5.308594 -42.179688 C 5.179688 -41.917969 5.179688 -41.699219 5.355469 -41.480469 L 5.484375 -41.351562 C 6.179688 -40.566406 6.527344 -39.652344 6.527344 -38.609375 L 6.527344 -3.265625 C 6.527344 -2.742188 6.441406 -2.261719 6.269531 -1.785156 C 6.09375 -1.304688 5.832031 -0.871094 5.484375 -0.523438 L 5.355469 -0.390625 C 5.179688 -0.128906 5.179688 0.0859375 5.308594 0.347656 C 5.398438 0.609375 5.613281 0.695312 5.917969 0.695312 L 29.121094 0.695312 C 30.078125 0.695312 30.949219 1.042969 31.6875 1.699219 C 31.90625 1.914062 32.167969 1.957031 32.429688 1.828125 C 32.6875 1.742188 32.863281 1.523438 32.863281 1.175781 L 32.863281 -8.53125 C 32.863281 -8.792969 32.734375 -9.011719 32.472656 -9.140625 C 32.210938 -9.226562 31.949219 -9.183594 31.773438 -9.011719 C 30.992188 -8.269531 30.078125 -7.921875 29.03125 -7.921875 L 16.234375 -7.921875 C 15.929688 -7.921875 15.667969 -8.007812 15.453125 -8.226562 C 15.234375 -8.402344 15.148438 -8.660156 15.148438 -9.011719 L 15.148438 -15.539062 C 15.148438 -15.84375 15.234375 -16.105469 15.453125 -16.324219 C 15.667969 -16.496094 15.929688 -16.628906 16.234375 -16.628906 L 20.066406 -16.628906 C 21.109375 -16.628906 22.023438 -16.234375 22.808594 -15.539062 C 23.027344 -15.363281 23.242188 -15.363281 23.503906 -15.496094 C 23.765625 -15.625 23.894531 -15.84375 23.894531 -16.105469 L 23.894531 -25.769531 C 23.894531 -26.027344 23.765625 -26.203125 23.503906 -26.332031 C 23.242188 -26.464844 23.027344 -26.464844 22.808594 -26.332031 C 22.023438 -25.59375 21.109375 -25.246094 20.066406 -25.246094 L 16.234375 -25.246094 C 15.929688 -25.246094 15.667969 -25.332031 15.453125 -25.550781 C 15.234375 -25.722656 15.148438 -25.984375 15.148438 -26.332031 L 15.148438 -32.863281 C 15.148438 -33.167969 15.234375 -33.429688 15.453125 -33.648438 C 15.667969 -33.820312 15.929688 -33.953125 16.234375 -33.953125 L 29.03125 -33.953125 C 30.078125 -33.953125 30.992188 -33.558594 31.773438 -32.863281 C 31.949219 -32.644531 32.210938 -32.601562 32.472656 -32.734375 C 32.734375 -32.820312 32.863281 -33.039062 32.863281 -33.34375 L 32.863281 -43.09375 C 32.863281 -43.351562 32.6875 -43.570312 32.429688 -43.703125 C 32.167969 -43.789062 31.90625 -43.746094 31.6875 -43.570312 Z M 31.6875 -43.570312 "/></g></g></g><g fill="#ffc1b2" fill-opacity="0.302"><g transform="translate(260.588117, 396.640113)"><g><path d="M 39.609375 -0.785156 C 39.609375 -0.957031 39.523438 -1.089844 39.390625 -1.175781 C 38.390625 -2.003906 37.738281 -3.046875 37.390625 -4.351562 L 26.988281 -40.304688 C 26.769531 -41.003906 26.898438 -41.65625 27.421875 -42.179688 C 27.550781 -42.394531 27.550781 -42.613281 27.464844 -42.875 C 27.335938 -43.136719 27.117188 -43.265625 26.855469 -43.265625 L 15.363281 -43.265625 C 15.105469 -43.265625 14.886719 -43.136719 14.753906 -42.875 C 14.625 -42.613281 14.625 -42.394531 14.800781 -42.179688 C 15.320312 -41.65625 15.453125 -41.003906 15.234375 -40.304688 L 4.875 -4.308594 C 4.527344 -3.089844 3.832031 -2.046875 2.828125 -1.175781 C 2.699219 -1.042969 2.613281 -0.914062 2.613281 -0.785156 C 2.566406 -0.566406 2.613281 -0.390625 2.742188 -0.21875 C 2.871094 -0.0429688 3.046875 0 3.308594 0 L 13.40625 0 C 13.667969 0 13.886719 -0.0859375 13.972656 -0.347656 C 14.058594 -0.609375 14.058594 -0.828125 13.886719 -1.042969 C 13.363281 -1.566406 13.230469 -2.21875 13.40625 -2.917969 L 14.753906 -7.441406 C 14.886719 -7.921875 15.148438 -8.3125 15.539062 -8.574219 C 15.886719 -8.835938 16.324219 -9.011719 16.84375 -9.011719 L 25.417969 -9.011719 C 25.898438 -9.011719 26.332031 -8.835938 26.726562 -8.574219 C 27.074219 -8.3125 27.335938 -7.921875 27.507812 -7.441406 L 28.816406 -2.917969 C 28.988281 -2.21875 28.816406 -1.609375 28.378906 -1.089844 L 28.378906 -1.042969 C 28.207031 -0.785156 28.207031 -0.566406 28.335938 -0.347656 C 28.421875 -0.0859375 28.640625 0 28.945312 0 L 38.957031 0 C 39.175781 0 39.347656 -0.0429688 39.480469 -0.21875 C 39.609375 -0.390625 39.652344 -0.566406 39.609375 -0.785156 Z M 23.941406 -17.628906 L 18.324219 -17.628906 C 18.152344 -17.628906 18.019531 -17.671875 17.933594 -17.800781 C 17.800781 -17.933594 17.757812 -18.105469 17.847656 -18.28125 L 20.675781 -27.988281 C 20.71875 -28.207031 20.847656 -28.335938 21.109375 -28.335938 C 21.371094 -28.335938 21.503906 -28.207031 21.589844 -27.988281 L 24.375 -18.28125 C 24.417969 -18.105469 24.375 -17.933594 24.289062 -17.800781 C 24.199219 -17.671875 24.070312 -17.628906 23.941406 -17.628906 Z M 23.941406 -17.628906 "/></g></g></g><g fill="#ffc1b2" fill-opacity="0.302"><g transform="translate(302.853354, 396.640113)"><g><path d="M 31.644531 -9.621094 L 31.121094 -9.183594 C 30.644531 -8.75 30.121094 -8.574219 29.554688 -8.574219 L 16.0625 -8.574219 C 15.757812 -8.574219 15.496094 -8.660156 15.320312 -8.835938 C 15.105469 -9.011719 15.015625 -9.269531 15.015625 -9.621094 L 15.015625 -39.390625 C 15.015625 -40.394531 15.363281 -41.308594 16.0625 -42.089844 L 16.105469 -42.132812 C 16.234375 -42.351562 16.234375 -42.570312 16.148438 -42.832031 C 16.019531 -43.046875 15.800781 -43.179688 15.539062 -43.179688 L 5.917969 -43.179688 C 5.613281 -43.179688 5.398438 -43.046875 5.308594 -42.832031 C 5.179688 -42.570312 5.179688 -42.351562 5.355469 -42.132812 C 6.050781 -41.351562 6.398438 -40.4375 6.398438 -39.4375 L 6.398438 -0.957031 C 6.398438 -0.652344 6.484375 -0.390625 6.703125 -0.21875 C 6.878906 0 7.136719 0.0859375 7.441406 0.0859375 L 29.554688 0.0859375 C 30.121094 0.0859375 30.644531 0.304688 31.121094 0.695312 L 31.644531 1.132812 C 31.863281 1.304688 32.078125 1.304688 32.339844 1.175781 C 32.558594 1.089844 32.6875 0.871094 32.6875 0.566406 L 32.6875 -9.054688 C 32.6875 -9.316406 32.558594 -9.53125 32.339844 -9.664062 C 32.078125 -9.75 31.863281 -9.75 31.644531 -9.621094 Z M 31.644531 -9.621094 "/></g></g></g><g fill="#ffc1b2" fill-opacity="0.302"><g transform="translate(338.19769, 396.640113)"><g><path d="M 34.082031 -44.355469 L 34.039062 -44.3125 C 33.253906 -43.613281 32.382812 -43.265625 31.382812 -43.265625 L 9.011719 -43.265625 C 7.964844 -43.265625 7.09375 -43.613281 6.3125 -44.3125 L 6.3125 -44.355469 C 6.050781 -44.484375 5.832031 -44.484375 5.570312 -44.355469 C 5.308594 -44.222656 5.222656 -44.050781 5.222656 -43.789062 L 5.222656 -34.125 C 5.222656 -33.820312 5.308594 -33.601562 5.570312 -33.515625 C 5.832031 -33.386719 6.050781 -33.386719 6.3125 -33.558594 C 7.09375 -34.257812 7.964844 -34.648438 9.011719 -34.648438 L 15.015625 -34.648438 C 15.234375 -34.648438 15.453125 -34.5625 15.625 -34.386719 C 15.800781 -34.210938 15.886719 -33.996094 15.886719 -33.777344 L 15.886719 -3.832031 C 15.886719 -2.785156 15.539062 -1.871094 14.84375 -1.132812 L 14.800781 -1.089844 C 14.625 -0.828125 14.625 -0.609375 14.753906 -0.347656 C 14.84375 -0.0859375 15.058594 0 15.363281 0 L 25.027344 0 C 25.289062 0 25.464844 -0.0859375 25.59375 -0.347656 C 25.722656 -0.609375 25.722656 -0.828125 25.59375 -1.089844 C 24.855469 -1.871094 24.503906 -2.742188 24.503906 -3.785156 L 24.503906 -33.777344 C 24.503906 -33.996094 24.59375 -34.210938 24.765625 -34.386719 C 24.941406 -34.5625 25.113281 -34.648438 25.375 -34.648438 L 31.382812 -34.648438 C 32.429688 -34.648438 33.296875 -34.257812 34.039062 -33.558594 L 34.082031 -33.558594 C 34.300781 -33.386719 34.515625 -33.386719 34.777344 -33.515625 C 35.039062 -33.601562 35.171875 -33.820312 35.171875 -34.125 L 35.171875 -43.789062 C 35.171875 -44.050781 35.039062 -44.222656 34.777344 -44.355469 C 34.515625 -44.484375 34.300781 -44.484375 34.082031 -44.355469 Z M 34.082031 -44.355469 "/></g></g></g><g fill="#ffc1b2" fill-opacity="0.302"><g transform="translate(378.591233, 396.640113)"><g><path d="M 37.824219 -1.089844 L 37.738281 -1.132812 C 37.042969 -1.871094 36.738281 -2.742188 36.738281 -3.785156 L 36.738281 -39.480469 C 36.738281 -40.480469 37.042969 -41.351562 37.738281 -42.132812 L 37.824219 -42.179688 C 37.957031 -42.394531 37.957031 -42.613281 37.824219 -42.875 C 37.695312 -43.136719 37.519531 -43.265625 37.257812 -43.265625 L 27.597656 -43.265625 C 27.335938 -43.265625 27.117188 -43.136719 26.988281 -42.875 C 26.855469 -42.613281 26.855469 -42.394531 27.03125 -42.179688 L 27.074219 -42.179688 C 27.769531 -41.394531 28.117188 -40.480469 28.117188 -39.523438 L 28.117188 -27.378906 C 28.117188 -26.941406 27.945312 -26.59375 27.683594 -26.332031 C 27.378906 -26.074219 27.03125 -25.941406 26.636719 -25.941406 L 16.539062 -25.941406 C 16.105469 -25.941406 15.757812 -26.074219 15.496094 -26.332031 C 15.191406 -26.59375 15.058594 -26.941406 15.058594 -27.378906 L 15.058594 -39.566406 C 15.058594 -40.523438 15.410156 -41.394531 16.105469 -42.179688 C 16.234375 -42.394531 16.234375 -42.613281 16.148438 -42.875 C 16.019531 -43.136719 15.800781 -43.265625 15.539062 -43.265625 L 5.917969 -43.265625 C 5.613281 -43.265625 5.398438 -43.136719 5.308594 -42.875 C 5.179688 -42.613281 5.179688 -42.394531 5.355469 -42.179688 L 5.441406 -42.089844 C 6.09375 -41.351562 6.441406 -40.480469 6.441406 -39.480469 L 6.441406 -3.832031 C 6.441406 -2.785156 6.09375 -1.871094 5.441406 -1.175781 L 5.355469 -1.089844 C 5.179688 -0.828125 5.179688 -0.609375 5.308594 -0.347656 C 5.398438 -0.0859375 5.613281 0 5.917969 0 L 15.539062 0 C 15.800781 0 16.019531 -0.0859375 16.148438 -0.347656 C 16.234375 -0.609375 16.234375 -0.828125 16.105469 -1.089844 C 15.410156 -1.871094 15.058594 -2.742188 15.058594 -3.742188 L 15.058594 -15.886719 C 15.058594 -16.277344 15.191406 -16.628906 15.496094 -16.886719 C 15.757812 -17.148438 16.105469 -17.324219 16.539062 -17.324219 L 26.636719 -17.324219 C 27.03125 -17.324219 27.378906 -17.148438 27.683594 -16.886719 C 27.945312 -16.628906 28.117188 -16.277344 28.117188 -15.886719 L 28.117188 -3.742188 C 28.117188 -2.742188 27.769531 -1.871094 27.074219 -1.132812 L 27.03125 -1.089844 C 26.855469 -0.828125 26.855469 -0.609375 26.988281 -0.347656 C 27.117188 -0.0859375 27.335938 0 27.597656 0 L 37.257812 0 C 37.519531 0 37.695312 -0.0859375 37.824219 -0.347656 C 37.957031 -0.609375 37.957031 -0.828125 37.824219 -1.089844 Z M 37.824219 -1.089844 "/></g></g></g><g fill="#ffc1b2" fill-opacity="0.302"><g transform="translate(421.770538, 396.640113)"><g><path d="M 38.128906 -42.832031 C 38 -43.09375 37.824219 -43.222656 37.609375 -43.222656 L 37.609375 -43.265625 L 26.683594 -43.265625 C 26.378906 -43.265625 26.160156 -43.136719 26.074219 -42.875 C 25.941406 -42.613281 25.984375 -42.351562 26.203125 -42.179688 C 26.550781 -41.742188 26.59375 -41.308594 26.332031 -40.871094 L 20.804688 -31.078125 C 20.71875 -30.90625 20.542969 -30.859375 20.371094 -30.859375 C 20.195312 -30.859375 20.066406 -30.90625 19.980469 -31.078125 L 14.449219 -40.871094 C 14.191406 -41.351562 14.234375 -41.785156 14.625 -42.179688 C 14.800781 -42.351562 14.800781 -42.613281 14.710938 -42.875 C 14.625 -43.136719 14.40625 -43.265625 14.144531 -43.265625 L 3.175781 -43.265625 L 3.222656 -43.222656 C 2.960938 -43.222656 2.742188 -43.09375 2.65625 -42.832031 C 2.566406 -42.65625 2.566406 -42.527344 2.613281 -42.394531 C 2.65625 -42.222656 2.742188 -42.132812 2.871094 -42.046875 L 2.917969 -42.003906 C 3.480469 -41.570312 4.003906 -41.089844 4.441406 -40.566406 C 4.875 -40.046875 5.308594 -39.480469 5.660156 -38.871094 L 14.667969 -22.980469 C 15.625 -21.328125 16.105469 -19.542969 16.105469 -17.628906 L 16.105469 -3.699219 C 16.105469 -2.742188 15.757812 -1.871094 15.105469 -1.132812 C 14.84375 -0.871094 14.800781 -0.652344 14.929688 -0.390625 C 15.015625 -0.128906 15.234375 0 15.582031 0 L 25.332031 0 C 25.59375 0 25.8125 -0.0859375 25.898438 -0.347656 C 25.984375 -0.609375 25.984375 -0.828125 25.8125 -1.042969 C 25.070312 -1.828125 24.722656 -2.742188 24.722656 -3.785156 L 24.722656 -17.628906 C 24.722656 -19.5 25.160156 -21.285156 26.117188 -22.980469 L 35.125 -38.871094 C 35.824219 -40.089844 36.738281 -41.132812 37.914062 -42.046875 C 38.171875 -42.222656 38.261719 -42.484375 38.128906 -42.832031 Z M 38.128906 -42.832031 "/></g></g></g><g fill="#ffc1b2" fill-opacity="0.302"><g transform="translate(462.599335, 396.640113)"><g/></g></g><g fill="#ffc1b2" fill-opacity="0.302"><g transform="translate(488.715878, 396.640113)"><g><path d="M 30.164062 -21.808594 L 24.984375 -21.808594 C 23.984375 -21.808594 23.113281 -22.113281 22.417969 -22.808594 L 22.242188 -22.980469 C 21.980469 -23.113281 21.761719 -23.113281 21.503906 -23.027344 C 21.242188 -22.894531 21.152344 -22.675781 21.152344 -22.417969 L 21.152344 -12.753906 C 21.152344 -12.492188 21.242188 -12.273438 21.503906 -12.144531 C 21.761719 -12.011719 21.980469 -12.011719 22.242188 -12.1875 L 22.722656 -12.667969 C 23.070312 -13.015625 23.503906 -13.1875 24.027344 -13.1875 C 24.070312 -13.1875 24.113281 -13.144531 24.113281 -13.058594 L 24.113281 -9.664062 C 24.113281 -9.359375 23.984375 -9.097656 23.808594 -8.921875 C 23.636719 -8.707031 23.375 -8.617188 23.070312 -8.617188 C 20.71875 -8.617188 18.761719 -9.054688 17.238281 -9.96875 C 15.714844 -10.839844 14.496094 -11.96875 13.625 -13.320312 C 12.753906 -14.625 12.101562 -16.0625 11.753906 -17.542969 C 11.402344 -19.019531 11.230469 -20.414062 11.230469 -21.632812 C 11.230469 -23.375 11.492188 -25.027344 12.011719 -26.59375 C 12.535156 -28.164062 13.320312 -29.554688 14.277344 -30.773438 C 16.367188 -33.296875 19.324219 -34.605469 23.070312 -34.605469 L 27.421875 -34.605469 C 28.378906 -34.605469 29.25 -34.257812 29.992188 -33.648438 C 30.164062 -33.429688 30.382812 -33.386719 30.644531 -33.472656 C 30.90625 -33.558594 31.035156 -33.777344 31.035156 -34.082031 L 31.035156 -43.832031 C 31.035156 -44.09375 30.90625 -44.3125 30.6875 -44.441406 C 30.425781 -44.527344 30.207031 -44.527344 29.992188 -44.398438 L 29.816406 -44.222656 C 29.078125 -43.570312 28.207031 -43.265625 27.246094 -43.265625 L 23.070312 -43.265625 C 19.890625 -43.265625 17.019531 -42.65625 14.40625 -41.480469 C 11.796875 -40.261719 9.574219 -38.523438 7.660156 -36.257812 C 6.007812 -34.300781 4.746094 -32.078125 3.875 -29.554688 C 3.003906 -27.03125 2.613281 -24.417969 2.613281 -21.632812 C 2.613281 -18.933594 3.046875 -16.277344 3.917969 -13.710938 C 4.789062 -11.097656 6.050781 -8.792969 7.792969 -6.789062 C 9.53125 -4.746094 11.664062 -3.089844 14.191406 -1.871094 C 16.714844 -0.609375 19.675781 0 23.070312 0 L 30.164062 0 C 30.859375 0 31.46875 -0.21875 31.992188 -0.738281 C 32.472656 -1.21875 32.734375 -1.828125 32.734375 -2.566406 L 32.734375 -19.238281 C 32.734375 -19.933594 32.472656 -20.5 31.992188 -21.023438 C 31.46875 -21.546875 30.859375 -21.808594 30.164062 -21.808594 Z M 30.164062 -21.808594 "/></g></g></g><g fill="#ffc1b2" fill-opacity="0.302"><g transform="translate(526.71541, 396.640113)"><g><path d="M 37.304688 -43.222656 L 27.683594 -43.222656 C 27.378906 -43.222656 27.160156 -43.09375 27.074219 -42.875 C 26.941406 -42.613281 26.941406 -42.394531 27.117188 -42.179688 C 27.8125 -41.351562 28.207031 -40.4375 28.207031 -39.4375 L 28.207031 -14.058594 C 28.207031 -12.710938 27.859375 -11.664062 27.246094 -10.96875 C 26.636719 -10.230469 25.941406 -9.707031 25.160156 -9.359375 C 24.375 -9.011719 23.636719 -8.792969 22.9375 -8.707031 C 22.242188 -8.617188 21.808594 -8.617188 21.632812 -8.617188 C 21.457031 -8.617188 20.980469 -8.617188 20.285156 -8.707031 C 19.585938 -8.792969 18.847656 -9.011719 18.0625 -9.359375 C 17.28125 -9.707031 16.582031 -10.230469 15.972656 -10.96875 C 15.363281 -11.664062 15.058594 -12.710938 15.058594 -14.058594 L 15.058594 -39.4375 C 15.058594 -40.480469 15.410156 -41.394531 16.105469 -42.179688 C 16.234375 -42.394531 16.234375 -42.613281 16.148438 -42.875 C 16.019531 -43.09375 15.800781 -43.222656 15.539062 -43.222656 L 5.917969 -43.222656 C 5.613281 -43.222656 5.398438 -43.09375 5.308594 -42.875 C 5.179688 -42.613281 5.179688 -42.394531 5.355469 -42.179688 C 6.050781 -41.394531 6.398438 -40.480469 6.398438 -39.4375 L 6.398438 -14.058594 C 6.398438 -11.882812 6.832031 -9.878906 7.703125 -8.050781 C 8.574219 -6.222656 9.792969 -4.65625 11.449219 -3.351562 C 12.839844 -2.21875 14.40625 -1.394531 16.148438 -0.828125 C 17.890625 -0.21875 19.71875 0.0429688 21.632812 0.0429688 C 23.546875 0.0429688 25.332031 -0.21875 27.074219 -0.828125 C 28.816406 -1.394531 30.382812 -2.21875 31.773438 -3.351562 C 33.429688 -4.65625 34.648438 -6.222656 35.519531 -8.050781 C 36.390625 -9.878906 36.824219 -11.882812 36.824219 -14.058594 L 36.824219 -39.4375 C 36.824219 -40.394531 37.171875 -41.308594 37.867188 -42.179688 C 38.042969 -42.394531 38.042969 -42.613281 37.914062 -42.875 C 37.78125 -43.09375 37.5625 -43.222656 37.304688 -43.222656 Z M 37.304688 -43.222656 "/></g></g></g><g fill="#ffc1b2" fill-opacity="0.302"><g transform="translate(569.981776, 396.640113)"><g><path d="M 47.140625 -3.65625 L 47.140625 -39.609375 C 47.140625 -40.566406 47.445312 -41.4375 48.140625 -42.179688 C 48.316406 -42.394531 48.359375 -42.613281 48.273438 -42.875 C 48.140625 -43.136719 47.96875 -43.265625 47.707031 -43.265625 L 38.523438 -43.265625 L 38.476562 -43.222656 L 38.476562 -43.265625 L 37.304688 -43.265625 C 37 -43.265625 36.78125 -43.136719 36.695312 -42.875 C 36.5625 -42.613281 36.5625 -42.394531 36.738281 -42.179688 C 36.910156 -41.917969 36.867188 -41.742188 36.695312 -41.613281 L 27.726562 -33.34375 C 27.421875 -33.082031 27.074219 -32.992188 26.726562 -32.992188 C 26.378906 -32.992188 26.074219 -33.082031 25.8125 -33.34375 L 16.714844 -41.699219 C 16.539062 -41.828125 16.539062 -41.960938 16.714844 -42.132812 C 16.886719 -42.351562 16.933594 -42.613281 16.84375 -42.875 C 16.714844 -43.136719 16.496094 -43.265625 16.191406 -43.265625 L 5.917969 -43.265625 C 5.613281 -43.265625 5.398438 -43.136719 5.308594 -42.875 C 5.179688 -42.613281 5.179688 -42.394531 5.355469 -42.179688 L 5.398438 -42.132812 C 6.050781 -41.394531 6.398438 -40.523438 6.398438 -39.566406 L 6.398438 -3.699219 C 6.398438 -2.699219 6.050781 -1.828125 5.398438 -1.132812 L 5.355469 -1.089844 C 5.179688 -0.828125 5.179688 -0.609375 5.308594 -0.347656 C 5.398438 -0.0859375 5.613281 0 5.917969 0 L 15.539062 0 C 15.800781 0 16.019531 -0.0859375 16.148438 -0.347656 C 16.234375 -0.609375 16.234375 -0.828125 16.105469 -1.089844 L 16.019531 -1.175781 C 15.320312 -1.871094 15.015625 -2.742188 15.015625 -3.742188 L 15.015625 -30.121094 C 15.015625 -30.382812 15.105469 -30.554688 15.363281 -30.644531 C 15.625 -30.730469 15.84375 -30.730469 16.0625 -30.554688 L 25.8125 -21.503906 C 26.074219 -21.242188 26.378906 -21.109375 26.769531 -21.109375 C 27.117188 -21.109375 27.464844 -21.242188 27.726562 -21.503906 L 37.476562 -30.554688 C 37.652344 -30.730469 37.867188 -30.730469 38.128906 -30.644531 C 38.390625 -30.554688 38.523438 -30.382812 38.523438 -30.121094 L 38.523438 -3.785156 C 38.523438 -2.828125 38.171875 -1.957031 37.476562 -1.21875 L 37.390625 -1.089844 C 37.214844 -0.828125 37.214844 -0.609375 37.347656 -0.347656 C 37.433594 -0.0859375 37.652344 0 37.957031 0 L 47.707031 0 C 47.96875 0 48.140625 -0.0859375 48.273438 -0.347656 C 48.359375 -0.609375 48.316406 -0.828125 48.140625 -1.089844 C 47.445312 -1.785156 47.140625 -2.65625 47.140625 -3.65625 Z M 47.140625 -3.65625 "/></g></g></g><g fill="#ffc1b2" fill-opacity="0.302"><g transform="translate(623.520625, 396.640113)"><g><path d="M 47.140625 -3.65625 L 47.140625 -39.609375 C 47.140625 -40.566406 47.445312 -41.4375 48.140625 -42.179688 C 48.316406 -42.394531 48.359375 -42.613281 48.273438 -42.875 C 48.140625 -43.136719 47.96875 -43.265625 47.707031 -43.265625 L 38.523438 -43.265625 L 38.476562 -43.222656 L 38.476562 -43.265625 L 37.304688 -43.265625 C 37 -43.265625 36.78125 -43.136719 36.695312 -42.875 C 36.5625 -42.613281 36.5625 -42.394531 36.738281 -42.179688 C 36.910156 -41.917969 36.867188 -41.742188 36.695312 -41.613281 L 27.726562 -33.34375 C 27.421875 -33.082031 27.074219 -32.992188 26.726562 -32.992188 C 26.378906 -32.992188 26.074219 -33.082031 25.8125 -33.34375 L 16.714844 -41.699219 C 16.539062 -41.828125 16.539062 -41.960938 16.714844 -42.132812 C 16.886719 -42.351562 16.933594 -42.613281 16.84375 -42.875 C 16.714844 -43.136719 16.496094 -43.265625 16.191406 -43.265625 L 5.917969 -43.265625 C 5.613281 -43.265625 5.398438 -43.136719 5.308594 -42.875 C 5.179688 -42.613281 5.179688 -42.394531 5.355469 -42.179688 L 5.398438 -42.132812 C 6.050781 -41.394531 6.398438 -40.523438 6.398438 -39.566406 L 6.398438 -3.699219 C 6.398438 -2.699219 6.050781 -1.828125 5.398438 -1.132812 L 5.355469 -1.089844 C 5.179688 -0.828125 5.179688 -0.609375 5.308594 -0.347656 C 5.398438 -0.0859375 5.613281 0 5.917969 0 L 15.539062 0 C 15.800781 0 16.019531 -0.0859375 16.148438 -0.347656 C 16.234375 -0.609375 16.234375 -0.828125 16.105469 -1.089844 L 16.019531 -1.175781 C 15.320312 -1.871094 15.015625 -2.742188 15.015625 -3.742188 L 15.015625 -30.121094 C 15.015625 -30.382812 15.105469 -30.554688 15.363281 -30.644531 C 15.625 -30.730469 15.84375 -30.730469 16.0625 -30.554688 L 25.8125 -21.503906 C 26.074219 -21.242188 26.378906 -21.109375 26.769531 -21.109375 C 27.117188 -21.109375 27.464844 -21.242188 27.726562 -21.503906 L 37.476562 -30.554688 C 37.652344 -30.730469 37.867188 -30.730469 38.128906 -30.644531 C 38.390625 -30.554688 38.523438 -30.382812 38.523438 -30.121094 L 38.523438 -3.785156 C 38.523438 -2.828125 38.171875 -1.957031 37.476562 -1.21875 L 37.390625 -1.089844 C 37.214844 -0.828125 37.214844 -0.609375 37.347656 -0.347656 C 37.433594 -0.0859375 37.652344 0 37.957031 0 L 47.707031 0 C 47.96875 0 48.140625 -0.0859375 48.273438 -0.347656 C 48.359375 -0.609375 48.316406 -0.828125 48.140625 -1.089844 C 47.445312 -1.785156 47.140625 -2.65625 47.140625 -3.65625 Z M 47.140625 -3.65625 "/></g></g></g><g fill="#ffc1b2" fill-opacity="0.302"><g transform="translate(677.059473, 396.640113)"><g><path d="M 15.058594 -3.832031 L 15.058594 -39.4375 C 15.058594 -40.480469 15.410156 -41.394531 16.105469 -42.179688 C 16.234375 -42.394531 16.234375 -42.613281 16.148438 -42.875 C 16.019531 -43.136719 15.800781 -43.265625 15.539062 -43.265625 L 5.917969 -43.265625 C 5.613281 -43.265625 5.398438 -43.136719 5.308594 -42.875 C 5.179688 -42.613281 5.179688 -42.394531 5.355469 -42.179688 C 6.050781 -41.394531 6.441406 -40.480469 6.441406 -39.4375 L 6.441406 -3.832031 C 6.441406 -2.785156 6.050781 -1.871094 5.355469 -1.089844 C 5.179688 -0.828125 5.179688 -0.609375 5.308594 -0.347656 C 5.398438 -0.0859375 5.613281 0 5.917969 0 L 15.539062 0 C 15.800781 0 16.019531 -0.0859375 16.148438 -0.347656 C 16.234375 -0.609375 16.234375 -0.828125 16.105469 -1.089844 C 15.757812 -1.4375 15.496094 -1.871094 15.320312 -2.351562 C 15.148438 -2.828125 15.058594 -3.308594 15.058594 -3.832031 Z M 15.058594 -3.832031 "/></g></g></g><g fill="#ffc1b2" fill-opacity="0.302"><g transform="translate(698.562063, 396.640113)"><g><path d="M 31.6875 -43.570312 C 30.949219 -42.875 30.078125 -42.570312 29.121094 -42.570312 L 5.917969 -42.570312 C 5.613281 -42.570312 5.398438 -42.4375 5.308594 -42.179688 C 5.179688 -41.917969 5.179688 -41.699219 5.355469 -41.480469 L 5.484375 -41.351562 C 6.179688 -40.566406 6.527344 -39.652344 6.527344 -38.609375 L 6.527344 -3.265625 C 6.527344 -2.742188 6.441406 -2.261719 6.269531 -1.785156 C 6.09375 -1.304688 5.832031 -0.871094 5.484375 -0.523438 L 5.355469 -0.390625 C 5.179688 -0.128906 5.179688 0.0859375 5.308594 0.347656 C 5.398438 0.609375 5.613281 0.695312 5.917969 0.695312 L 29.121094 0.695312 C 30.078125 0.695312 30.949219 1.042969 31.6875 1.699219 C 31.90625 1.914062 32.167969 1.957031 32.429688 1.828125 C 32.6875 1.742188 32.863281 1.523438 32.863281 1.175781 L 32.863281 -8.53125 C 32.863281 -8.792969 32.734375 -9.011719 32.472656 -9.140625 C 32.210938 -9.226562 31.949219 -9.183594 31.773438 -9.011719 C 30.992188 -8.269531 30.078125 -7.921875 29.03125 -7.921875 L 16.234375 -7.921875 C 15.929688 -7.921875 15.667969 -8.007812 15.453125 -8.226562 C 15.234375 -8.402344 15.148438 -8.660156 15.148438 -9.011719 L 15.148438 -15.539062 C 15.148438 -15.84375 15.234375 -16.105469 15.453125 -16.324219 C 15.667969 -16.496094 15.929688 -16.628906 16.234375 -16.628906 L 20.066406 -16.628906 C 21.109375 -16.628906 22.023438 -16.234375 22.808594 -15.539062 C 23.027344 -15.363281 23.242188 -15.363281 23.503906 -15.496094 C 23.765625 -15.625 23.894531 -15.84375 23.894531 -16.105469 L 23.894531 -25.769531 C 23.894531 -26.027344 23.765625 -26.203125 23.503906 -26.332031 C 23.242188 -26.464844 23.027344 -26.464844 22.808594 -26.332031 C 22.023438 -25.59375 21.109375 -25.246094 20.066406 -25.246094 L 16.234375 -25.246094 C 15.929688 -25.246094 15.667969 -25.332031 15.453125 -25.550781 C 15.234375 -25.722656 15.148438 -25.984375 15.148438 -26.332031 L 15.148438 -32.863281 C 15.148438 -33.167969 15.234375 -33.429688 15.453125 -33.648438 C 15.667969 -33.820312 15.929688 -33.953125 16.234375 -33.953125 L 29.03125 -33.953125 C 30.078125 -33.953125 30.992188 -33.558594 31.773438 -32.863281 C 31.949219 -32.644531 32.210938 -32.601562 32.472656 -32.734375 C 32.734375 -32.820312 32.863281 -33.039062 32.863281 -33.34375 L 32.863281 -43.09375 C 32.863281 -43.351562 32.6875 -43.570312 32.429688 -43.703125 C 32.167969 -43.789062 31.90625 -43.746094 31.6875 -43.570312 Z M 31.6875 -43.570312 "/></g></g></g><g fill="#ffc1b2" fill-opacity="0.302"><g transform="translate(736.648658, 396.640113)"><g><path d="M 35.78125 -32.558594 L 35.5625 -32.820312 C 34.953125 -33.429688 34.5625 -34.125 34.300781 -34.910156 C 33.515625 -37.347656 31.90625 -39.347656 29.554688 -40.914062 C 28.25 -41.742188 26.769531 -42.394531 25.113281 -42.832031 C 23.460938 -43.265625 21.761719 -43.484375 19.933594 -43.484375 C 18.105469 -43.484375 16.324219 -43.222656 14.625 -42.789062 C 12.925781 -42.351562 11.402344 -41.699219 10.054688 -40.871094 C 8.226562 -39.742188 6.878906 -38.390625 5.917969 -36.78125 C 4.960938 -35.171875 4.527344 -33.429688 4.527344 -31.515625 C 4.527344 -27.859375 6.222656 -24.722656 9.707031 -22.15625 C 10.925781 -21.199219 12.230469 -20.414062 13.667969 -19.71875 C 15.105469 -19.019531 16.582031 -18.324219 18.0625 -17.714844 C 18.933594 -17.28125 19.890625 -16.84375 20.847656 -16.410156 C 21.808594 -15.972656 22.675781 -15.496094 23.460938 -15.058594 C 24.246094 -14.582031 24.898438 -14.101562 25.417969 -13.625 C 25.941406 -13.101562 26.203125 -12.621094 26.203125 -12.144531 C 26.203125 -11.535156 25.984375 -10.96875 25.550781 -10.535156 C 25.113281 -10.097656 24.550781 -9.707031 23.894531 -9.445312 C 23.242188 -9.183594 22.546875 -8.964844 21.761719 -8.835938 C 20.980469 -8.660156 20.285156 -8.617188 19.585938 -8.617188 C 18.714844 -8.617188 17.847656 -8.707031 16.886719 -8.921875 C 15.929688 -9.097656 15.105469 -9.445312 14.449219 -9.925781 C 14.277344 -10.054688 14.144531 -10.230469 14.144531 -10.445312 C 14.101562 -10.664062 14.144531 -10.839844 14.320312 -11.011719 L 14.363281 -11.054688 C 14.496094 -11.273438 14.496094 -11.492188 14.40625 -11.753906 C 14.277344 -12.011719 14.058594 -12.144531 13.796875 -12.144531 L 4.179688 -12.144531 C 3.875 -12.144531 3.65625 -12.011719 3.570312 -11.753906 C 3.4375 -11.492188 3.4375 -11.273438 3.613281 -11.054688 L 3.785156 -10.882812 C 4.394531 -10.183594 4.789062 -9.445312 5.050781 -8.707031 C 5.832031 -6.179688 7.398438 -4.179688 9.835938 -2.65625 C 11.144531 -1.785156 12.667969 -1.132812 14.320312 -0.695312 C 15.972656 -0.21875 17.757812 0 19.585938 0 C 21.761719 0 23.808594 -0.304688 25.679688 -0.914062 C 27.550781 -1.523438 29.164062 -2.351562 30.511719 -3.4375 C 31.863281 -4.484375 32.90625 -5.789062 33.691406 -7.269531 C 34.429688 -8.75 34.820312 -10.359375 34.820312 -12.144531 C 34.820312 -14.015625 34.386719 -15.667969 33.558594 -17.0625 C 32.734375 -18.457031 31.6875 -19.675781 30.382812 -20.71875 C 29.078125 -21.761719 27.683594 -22.632812 26.117188 -23.417969 C 24.550781 -24.199219 23.027344 -24.898438 21.546875 -25.59375 C 20.542969 -26.027344 19.542969 -26.464844 18.542969 -26.941406 C 17.542969 -27.378906 16.628906 -27.859375 15.84375 -28.378906 C 15.058594 -28.859375 14.40625 -29.382812 13.886719 -29.902344 C 13.363281 -30.425781 13.144531 -30.949219 13.144531 -31.515625 C 13.144531 -31.992188 13.320312 -32.429688 13.753906 -32.863281 C 14.144531 -33.296875 14.667969 -33.648438 15.320312 -33.953125 C 15.929688 -34.210938 16.671875 -34.429688 17.496094 -34.605469 C 18.28125 -34.777344 19.109375 -34.867188 19.933594 -34.867188 C 20.894531 -34.867188 21.851562 -34.734375 22.722656 -34.5625 C 23.589844 -34.34375 24.289062 -34.039062 24.898438 -33.648438 C 25.070312 -33.515625 25.203125 -33.34375 25.203125 -33.125 C 25.203125 -32.90625 25.160156 -32.734375 25.027344 -32.601562 L 25.027344 -32.558594 C 24.855469 -32.296875 24.855469 -32.078125 24.984375 -31.863281 C 25.070312 -31.601562 25.289062 -31.515625 25.59375 -31.515625 L 35.214844 -31.515625 C 35.476562 -31.515625 35.691406 -31.601562 35.824219 -31.863281 C 35.910156 -32.078125 35.910156 -32.296875 35.78125 -32.558594 Z M 35.78125 -32.558594 "/></g></g></g><g fill="#ffc1b2" fill-opacity="0.502"><g transform="translate(180.474148, 397.129077)"><g><path d="M 37.824219 -1.089844 L 37.738281 -1.132812 C 37.042969 -1.871094 36.738281 -2.742188 36.738281 -3.785156 L 36.738281 -39.480469 C 36.738281 -40.480469 37.042969 -41.351562 37.738281 -42.132812 L 37.824219 -42.179688 C 37.957031 -42.394531 37.957031 -42.613281 37.824219 -42.875 C 37.695312 -43.136719 37.519531 -43.265625 37.257812 -43.265625 L 27.597656 -43.265625 C 27.335938 -43.265625 27.117188 -43.136719 26.988281 -42.875 C 26.855469 -42.613281 26.855469 -42.394531 27.03125 -42.179688 L 27.074219 -42.179688 C 27.769531 -41.394531 28.117188 -40.480469 28.117188 -39.523438 L 28.117188 -27.378906 C 28.117188 -26.941406 27.945312 -26.59375 27.683594 -26.332031 C 27.378906 -26.074219 27.03125 -25.941406 26.636719 -25.941406 L 16.539062 -25.941406 C 16.105469 -25.941406 15.757812 -26.074219 15.496094 -26.332031 C 15.191406 -26.59375 15.058594 -26.941406 15.058594 -27.378906 L 15.058594 -39.566406 C 15.058594 -40.523438 15.410156 -41.394531 16.105469 -42.179688 C 16.234375 -42.394531 16.234375 -42.613281 16.148438 -42.875 C 16.019531 -43.136719 15.800781 -43.265625 15.539062 -43.265625 L 5.917969 -43.265625 C 5.613281 -43.265625 5.398438 -43.136719 5.308594 -42.875 C 5.179688 -42.613281 5.179688 -42.394531 5.355469 -42.179688 L 5.441406 -42.089844 C 6.09375 -41.351562 6.441406 -40.480469 6.441406 -39.480469 L 6.441406 -3.832031 C 6.441406 -2.785156 6.09375 -1.871094 5.441406 -1.175781 L 5.355469 -1.089844 C 5.179688 -0.828125 5.179688 -0.609375 5.308594 -0.347656 C 5.398438 -0.0859375 5.613281 0 5.917969 0 L 15.539062 0 C 15.800781 0 16.019531 -0.0859375 16.148438 -0.347656 C 16.234375 -0.609375 16.234375 -0.828125 16.105469 -1.089844 C 15.410156 -1.871094 15.058594 -2.742188 15.058594 -3.742188 L 15.058594 -15.886719 C 15.058594 -16.277344 15.191406 -16.628906 15.496094 -16.886719 C 15.757812 -17.148438 16.105469 -17.324219 16.539062 -17.324219 L 26.636719 -17.324219 C 27.03125 -17.324219 27.378906 -17.148438 27.683594 -16.886719 C 27.945312 -16.628906 28.117188 -16.277344 28.117188 -15.886719 L 28.117188 -3.742188 C 28.117188 -2.742188 27.769531 -1.871094 27.074219 -1.132812 L 27.03125 -1.089844 C 26.855469 -0.828125 26.855469 -0.609375 26.988281 -0.347656 C 27.117188 -0.0859375 27.335938 0 27.597656 0 L 37.257812 0 C 37.519531 0 37.695312 -0.0859375 37.824219 -0.347656 C 37.957031 -0.609375 37.957031 -0.828125 37.824219 -1.089844 Z M 37.824219 -1.089844 "/></g></g></g><g fill="#ffc1b2" fill-opacity="0.502"><g transform="translate(223.653453, 397.129077)"><g><path d="M 31.6875 -43.570312 C 30.949219 -42.875 30.078125 -42.570312 29.121094 -42.570312 L 5.917969 -42.570312 C 5.613281 -42.570312 5.398438 -42.4375 5.308594 -42.179688 C 5.179688 -41.917969 5.179688 -41.699219 5.355469 -41.480469 L 5.484375 -41.351562 C 6.179688 -40.566406 6.527344 -39.652344 6.527344 -38.609375 L 6.527344 -3.265625 C 6.527344 -2.742188 6.441406 -2.261719 6.269531 -1.785156 C 6.09375 -1.304688 5.832031 -0.871094 5.484375 -0.523438 L 5.355469 -0.390625 C 5.179688 -0.128906 5.179688 0.0859375 5.308594 0.347656 C 5.398438 0.609375 5.613281 0.695312 5.917969 0.695312 L 29.121094 0.695312 C 30.078125 0.695312 30.949219 1.042969 31.6875 1.699219 C 31.90625 1.914062 32.167969 1.957031 32.429688 1.828125 C 32.6875 1.742188 32.863281 1.523438 32.863281 1.175781 L 32.863281 -8.53125 C 32.863281 -8.792969 32.734375 -9.011719 32.472656 -9.140625 C 32.210938 -9.226562 31.949219 -9.183594 31.773438 -9.011719 C 30.992188 -8.269531 30.078125 -7.921875 29.03125 -7.921875 L 16.234375 -7.921875 C 15.929688 -7.921875 15.667969 -8.007812 15.453125 -8.226562 C 15.234375 -8.402344 15.148438 -8.660156 15.148438 -9.011719 L 15.148438 -15.539062 C 15.148438 -15.84375 15.234375 -16.105469 15.453125 -16.324219 C 15.667969 -16.496094 15.929688 -16.628906 16.234375 -16.628906 L 20.066406 -16.628906 C 21.109375 -16.628906 22.023438 -16.234375 22.808594 -15.539062 C 23.027344 -15.363281 23.242188 -15.363281 23.503906 -15.496094 C 23.765625 -15.625 23.894531 -15.84375 23.894531 -16.105469 L 23.894531 -25.769531 C 23.894531 -26.027344 23.765625 -26.203125 23.503906 -26.332031 C 23.242188 -26.464844 23.027344 -26.464844 22.808594 -26.332031 C 22.023438 -25.59375 21.109375 -25.246094 20.066406 -25.246094 L 16.234375 -25.246094 C 15.929688 -25.246094 15.667969 -25.332031 15.453125 -25.550781 C 15.234375 -25.722656 15.148438 -25.984375 15.148438 -26.332031 L 15.148438 -32.863281 C 15.148438 -33.167969 15.234375 -33.429688 15.453125 -33.648438 C 15.667969 -33.820312 15.929688 -33.953125 16.234375 -33.953125 L 29.03125 -33.953125 C 30.078125 -33.953125 30.992188 -33.558594 31.773438 -32.863281 C 31.949219 -32.644531 32.210938 -32.601562 32.472656 -32.734375 C 32.734375 -32.820312 32.863281 -33.039062 32.863281 -33.34375 L 32.863281 -43.09375 C 32.863281 -43.351562 32.6875 -43.570312 32.429688 -43.703125 C 32.167969 -43.789062 31.90625 -43.746094 31.6875 -43.570312 Z M 31.6875 -43.570312 "/></g></g></g><g fill="#ffc1b2" fill-opacity="0.502"><g transform="translate(261.740047, 397.129077)"><g><path d="M 39.609375 -0.785156 C 39.609375 -0.957031 39.523438 -1.089844 39.390625 -1.175781 C 38.390625 -2.003906 37.738281 -3.046875 37.390625 -4.351562 L 26.988281 -40.304688 C 26.769531 -41.003906 26.898438 -41.65625 27.421875 -42.179688 C 27.550781 -42.394531 27.550781 -42.613281 27.464844 -42.875 C 27.335938 -43.136719 27.117188 -43.265625 26.855469 -43.265625 L 15.363281 -43.265625 C 15.105469 -43.265625 14.886719 -43.136719 14.753906 -42.875 C 14.625 -42.613281 14.625 -42.394531 14.800781 -42.179688 C 15.320312 -41.65625 15.453125 -41.003906 15.234375 -40.304688 L 4.875 -4.308594 C 4.527344 -3.089844 3.832031 -2.046875 2.828125 -1.175781 C 2.699219 -1.042969 2.613281 -0.914062 2.613281 -0.785156 C 2.566406 -0.566406 2.613281 -0.390625 2.742188 -0.21875 C 2.871094 -0.0429688 3.046875 0 3.308594 0 L 13.40625 0 C 13.667969 0 13.886719 -0.0859375 13.972656 -0.347656 C 14.058594 -0.609375 14.058594 -0.828125 13.886719 -1.042969 C 13.363281 -1.566406 13.230469 -2.21875 13.40625 -2.917969 L 14.753906 -7.441406 C 14.886719 -7.921875 15.148438 -8.3125 15.539062 -8.574219 C 15.886719 -8.835938 16.324219 -9.011719 16.84375 -9.011719 L 25.417969 -9.011719 C 25.898438 -9.011719 26.332031 -8.835938 26.726562 -8.574219 C 27.074219 -8.3125 27.335938 -7.921875 27.507812 -7.441406 L 28.816406 -2.917969 C 28.988281 -2.21875 28.816406 -1.609375 28.378906 -1.089844 L 28.378906 -1.042969 C 28.207031 -0.785156 28.207031 -0.566406 28.335938 -0.347656 C 28.421875 -0.0859375 28.640625 0 28.945312 0 L 38.957031 0 C 39.175781 0 39.347656 -0.0429688 39.480469 -0.21875 C 39.609375 -0.390625 39.652344 -0.566406 39.609375 -0.785156 Z M 23.941406 -17.628906 L 18.324219 -17.628906 C 18.152344 -17.628906 18.019531 -17.671875 17.933594 -17.800781 C 17.800781 -17.933594 17.757812 -18.105469 17.847656 -18.28125 L 20.675781 -27.988281 C 20.71875 -28.207031 20.847656 -28.335938 21.109375 -28.335938 C 21.371094 -28.335938 21.503906 -28.207031 21.589844 -27.988281 L 24.375 -18.28125 C 24.417969 -18.105469 24.375 -17.933594 24.289062 -17.800781 C 24.199219 -17.671875 24.070312 -17.628906 23.941406 -17.628906 Z M 23.941406 -17.628906 "/></g></g></g><g fill="#ffc1b2" fill-opacity="0.502"><g transform="translate(304.005284, 397.129077)"><g><path d="M 31.644531 -9.621094 L 31.121094 -9.183594 C 30.644531 -8.75 30.121094 -8.574219 29.554688 -8.574219 L 16.0625 -8.574219 C 15.757812 -8.574219 15.496094 -8.660156 15.320312 -8.835938 C 15.105469 -9.011719 15.015625 -9.269531 15.015625 -9.621094 L 15.015625 -39.390625 C 15.015625 -40.394531 15.363281 -41.308594 16.0625 -42.089844 L 16.105469 -42.132812 C 16.234375 -42.351562 16.234375 -42.570312 16.148438 -42.832031 C 16.019531 -43.046875 15.800781 -43.179688 15.539062 -43.179688 L 5.917969 -43.179688 C 5.613281 -43.179688 5.398438 -43.046875 5.308594 -42.832031 C 5.179688 -42.570312 5.179688 -42.351562 5.355469 -42.132812 C 6.050781 -41.351562 6.398438 -40.4375 6.398438 -39.4375 L 6.398438 -0.957031 C 6.398438 -0.652344 6.484375 -0.390625 6.703125 -0.21875 C 6.878906 0 7.136719 0.0859375 7.441406 0.0859375 L 29.554688 0.0859375 C 30.121094 0.0859375 30.644531 0.304688 31.121094 0.695312 L 31.644531 1.132812 C 31.863281 1.304688 32.078125 1.304688 32.339844 1.175781 C 32.558594 1.089844 32.6875 0.871094 32.6875 0.566406 L 32.6875 -9.054688 C 32.6875 -9.316406 32.558594 -9.53125 32.339844 -9.664062 C 32.078125 -9.75 31.863281 -9.75 31.644531 -9.621094 Z M 31.644531 -9.621094 "/></g></g></g><g fill="#ffc1b2" fill-opacity="0.502"><g transform="translate(339.34962, 397.129077)"><g><path d="M 34.082031 -44.355469 L 34.039062 -44.3125 C 33.253906 -43.613281 32.382812 -43.265625 31.382812 -43.265625 L 9.011719 -43.265625 C 7.964844 -43.265625 7.09375 -43.613281 6.3125 -44.3125 L 6.3125 -44.355469 C 6.050781 -44.484375 5.832031 -44.484375 5.570312 -44.355469 C 5.308594 -44.222656 5.222656 -44.050781 5.222656 -43.789062 L 5.222656 -34.125 C 5.222656 -33.820312 5.308594 -33.601562 5.570312 -33.515625 C 5.832031 -33.386719 6.050781 -33.386719 6.3125 -33.558594 C 7.09375 -34.257812 7.964844 -34.648438 9.011719 -34.648438 L 15.015625 -34.648438 C 15.234375 -34.648438 15.453125 -34.5625 15.625 -34.386719 C 15.800781 -34.210938 15.886719 -33.996094 15.886719 -33.777344 L 15.886719 -3.832031 C 15.886719 -2.785156 15.539062 -1.871094 14.84375 -1.132812 L 14.800781 -1.089844 C 14.625 -0.828125 14.625 -0.609375 14.753906 -0.347656 C 14.84375 -0.0859375 15.058594 0 15.363281 0 L 25.027344 0 C 25.289062 0 25.464844 -0.0859375 25.59375 -0.347656 C 25.722656 -0.609375 25.722656 -0.828125 25.59375 -1.089844 C 24.855469 -1.871094 24.503906 -2.742188 24.503906 -3.785156 L 24.503906 -33.777344 C 24.503906 -33.996094 24.59375 -34.210938 24.765625 -34.386719 C 24.941406 -34.5625 25.113281 -34.648438 25.375 -34.648438 L 31.382812 -34.648438 C 32.429688 -34.648438 33.296875 -34.257812 34.039062 -33.558594 L 34.082031 -33.558594 C 34.300781 -33.386719 34.515625 -33.386719 34.777344 -33.515625 C 35.039062 -33.601562 35.171875 -33.820312 35.171875 -34.125 L 35.171875 -43.789062 C 35.171875 -44.050781 35.039062 -44.222656 34.777344 -44.355469 C 34.515625 -44.484375 34.300781 -44.484375 34.082031 -44.355469 Z M 34.082031 -44.355469 "/></g></g></g><g fill="#ffc1b2" fill-opacity="0.502"><g transform="translate(379.743163, 397.129077)"><g><path d="M 37.824219 -1.089844 L 37.738281 -1.132812 C 37.042969 -1.871094 36.738281 -2.742188 36.738281 -3.785156 L 36.738281 -39.480469 C 36.738281 -40.480469 37.042969 -41.351562 37.738281 -42.132812 L 37.824219 -42.179688 C 37.957031 -42.394531 37.957031 -42.613281 37.824219 -42.875 C 37.695312 -43.136719 37.519531 -43.265625 37.257812 -43.265625 L 27.597656 -43.265625 C 27.335938 -43.265625 27.117188 -43.136719 26.988281 -42.875 C 26.855469 -42.613281 26.855469 -42.394531 27.03125 -42.179688 L 27.074219 -42.179688 C 27.769531 -41.394531 28.117188 -40.480469 28.117188 -39.523438 L 28.117188 -27.378906 C 28.117188 -26.941406 27.945312 -26.59375 27.683594 -26.332031 C 27.378906 -26.074219 27.03125 -25.941406 26.636719 -25.941406 L 16.539062 -25.941406 C 16.105469 -25.941406 15.757812 -26.074219 15.496094 -26.332031 C 15.191406 -26.59375 15.058594 -26.941406 15.058594 -27.378906 L 15.058594 -39.566406 C 15.058594 -40.523438 15.410156 -41.394531 16.105469 -42.179688 C 16.234375 -42.394531 16.234375 -42.613281 16.148438 -42.875 C 16.019531 -43.136719 15.800781 -43.265625 15.539062 -43.265625 L 5.917969 -43.265625 C 5.613281 -43.265625 5.398438 -43.136719 5.308594 -42.875 C 5.179688 -42.613281 5.179688 -42.394531 5.355469 -42.179688 L 5.441406 -42.089844 C 6.09375 -41.351562 6.441406 -40.480469 6.441406 -39.480469 L 6.441406 -3.832031 C 6.441406 -2.785156 6.09375 -1.871094 5.441406 -1.175781 L 5.355469 -1.089844 C 5.179688 -0.828125 5.179688 -0.609375 5.308594 -0.347656 C 5.398438 -0.0859375 5.613281 0 5.917969 0 L 15.539062 0 C 15.800781 0 16.019531 -0.0859375 16.148438 -0.347656 C 16.234375 -0.609375 16.234375 -0.828125 16.105469 -1.089844 C 15.410156 -1.871094 15.058594 -2.742188 15.058594 -3.742188 L 15.058594 -15.886719 C 15.058594 -16.277344 15.191406 -16.628906 15.496094 -16.886719 C 15.757812 -17.148438 16.105469 -17.324219 16.539062 -17.324219 L 26.636719 -17.324219 C 27.03125 -17.324219 27.378906 -17.148438 27.683594 -16.886719 C 27.945312 -16.628906 28.117188 -16.277344 28.117188 -15.886719 L 28.117188 -3.742188 C 28.117188 -2.742188 27.769531 -1.871094 27.074219 -1.132812 L 27.03125 -1.089844 C 26.855469 -0.828125 26.855469 -0.609375 26.988281 -0.347656 C 27.117188 -0.0859375 27.335938 0 27.597656 0 L 37.257812 0 C 37.519531 0 37.695312 -0.0859375 37.824219 -0.347656 C 37.957031 -0.609375 37.957031 -0.828125 37.824219 -1.089844 Z M 37.824219 -1.089844 "/></g></g></g><g fill="#ffc1b2" fill-opacity="0.502"><g transform="translate(422.922468, 397.129077)"><g><path d="M 38.128906 -42.832031 C 38 -43.09375 37.824219 -43.222656 37.609375 -43.222656 L 37.609375 -43.265625 L 26.683594 -43.265625 C 26.378906 -43.265625 26.160156 -43.136719 26.074219 -42.875 C 25.941406 -42.613281 25.984375 -42.351562 26.203125 -42.179688 C 26.550781 -41.742188 26.59375 -41.308594 26.332031 -40.871094 L 20.804688 -31.078125 C 20.71875 -30.90625 20.542969 -30.859375 20.371094 -30.859375 C 20.195312 -30.859375 20.066406 -30.90625 19.980469 -31.078125 L 14.449219 -40.871094 C 14.191406 -41.351562 14.234375 -41.785156 14.625 -42.179688 C 14.800781 -42.351562 14.800781 -42.613281 14.710938 -42.875 C 14.625 -43.136719 14.40625 -43.265625 14.144531 -43.265625 L 3.175781 -43.265625 L 3.222656 -43.222656 C 2.960938 -43.222656 2.742188 -43.09375 2.65625 -42.832031 C 2.566406 -42.65625 2.566406 -42.527344 2.613281 -42.394531 C 2.65625 -42.222656 2.742188 -42.132812 2.871094 -42.046875 L 2.917969 -42.003906 C 3.480469 -41.570312 4.003906 -41.089844 4.441406 -40.566406 C 4.875 -40.046875 5.308594 -39.480469 5.660156 -38.871094 L 14.667969 -22.980469 C 15.625 -21.328125 16.105469 -19.542969 16.105469 -17.628906 L 16.105469 -3.699219 C 16.105469 -2.742188 15.757812 -1.871094 15.105469 -1.132812 C 14.84375 -0.871094 14.800781 -0.652344 14.929688 -0.390625 C 15.015625 -0.128906 15.234375 0 15.582031 0 L 25.332031 0 C 25.59375 0 25.8125 -0.0859375 25.898438 -0.347656 C 25.984375 -0.609375 25.984375 -0.828125 25.8125 -1.042969 C 25.070312 -1.828125 24.722656 -2.742188 24.722656 -3.785156 L 24.722656 -17.628906 C 24.722656 -19.5 25.160156 -21.285156 26.117188 -22.980469 L 35.125 -38.871094 C 35.824219 -40.089844 36.738281 -41.132812 37.914062 -42.046875 C 38.171875 -42.222656 38.261719 -42.484375 38.128906 -42.832031 Z M 38.128906 -42.832031 "/></g></g></g><g fill="#ffc1b2" fill-opacity="0.502"><g transform="translate(463.751265, 397.129077)"><g/></g></g><g fill="#ffc1b2" fill-opacity="0.502"><g transform="translate(489.867808, 397.129077)"><g><path d="M 30.164062 -21.808594 L 24.984375 -21.808594 C 23.984375 -21.808594 23.113281 -22.113281 22.417969 -22.808594 L 22.242188 -22.980469 C 21.980469 -23.113281 21.761719 -23.113281 21.503906 -23.027344 C 21.242188 -22.894531 21.152344 -22.675781 21.152344 -22.417969 L 21.152344 -12.753906 C 21.152344 -12.492188 21.242188 -12.273438 21.503906 -12.144531 C 21.761719 -12.011719 21.980469 -12.011719 22.242188 -12.1875 L 22.722656 -12.667969 C 23.070312 -13.015625 23.503906 -13.1875 24.027344 -13.1875 C 24.070312 -13.1875 24.113281 -13.144531 24.113281 -13.058594 L 24.113281 -9.664062 C 24.113281 -9.359375 23.984375 -9.097656 23.808594 -8.921875 C 23.636719 -8.707031 23.375 -8.617188 23.070312 -8.617188 C 20.71875 -8.617188 18.761719 -9.054688 17.238281 -9.96875 C 15.714844 -10.839844 14.496094 -11.96875 13.625 -13.320312 C 12.753906 -14.625 12.101562 -16.0625 11.753906 -17.542969 C 11.402344 -19.019531 11.230469 -20.414062 11.230469 -21.632812 C 11.230469 -23.375 11.492188 -25.027344 12.011719 -26.59375 C 12.535156 -28.164062 13.320312 -29.554688 14.277344 -30.773438 C 16.367188 -33.296875 19.324219 -34.605469 23.070312 -34.605469 L 27.421875 -34.605469 C 28.378906 -34.605469 29.25 -34.257812 29.992188 -33.648438 C 30.164062 -33.429688 30.382812 -33.386719 30.644531 -33.472656 C 30.90625 -33.558594 31.035156 -33.777344 31.035156 -34.082031 L 31.035156 -43.832031 C 31.035156 -44.09375 30.90625 -44.3125 30.6875 -44.441406 C 30.425781 -44.527344 30.207031 -44.527344 29.992188 -44.398438 L 29.816406 -44.222656 C 29.078125 -43.570312 28.207031 -43.265625 27.246094 -43.265625 L 23.070312 -43.265625 C 19.890625 -43.265625 17.019531 -42.65625 14.40625 -41.480469 C 11.796875 -40.261719 9.574219 -38.523438 7.660156 -36.257812 C 6.007812 -34.300781 4.746094 -32.078125 3.875 -29.554688 C 3.003906 -27.03125 2.613281 -24.417969 2.613281 -21.632812 C 2.613281 -18.933594 3.046875 -16.277344 3.917969 -13.710938 C 4.789062 -11.097656 6.050781 -8.792969 7.792969 -6.789062 C 9.53125 -4.746094 11.664062 -3.089844 14.191406 -1.871094 C 16.714844 -0.609375 19.675781 0 23.070312 0 L 30.164062 0 C 30.859375 0 31.46875 -0.21875 31.992188 -0.738281 C 32.472656 -1.21875 32.734375 -1.828125 32.734375 -2.566406 L 32.734375 -19.238281 C 32.734375 -19.933594 32.472656 -20.5 31.992188 -21.023438 C 31.46875 -21.546875 30.859375 -21.808594 30.164062 -21.808594 Z M 30.164062 -21.808594 "/></g></g></g><g fill="#ffc1b2" fill-opacity="0.502"><g transform="translate(527.86734, 397.129077)"><g><path d="M 37.304688 -43.222656 L 27.683594 -43.222656 C 27.378906 -43.222656 27.160156 -43.09375 27.074219 -42.875 C 26.941406 -42.613281 26.941406 -42.394531 27.117188 -42.179688 C 27.8125 -41.351562 28.207031 -40.4375 28.207031 -39.4375 L 28.207031 -14.058594 C 28.207031 -12.710938 27.859375 -11.664062 27.246094 -10.96875 C 26.636719 -10.230469 25.941406 -9.707031 25.160156 -9.359375 C 24.375 -9.011719 23.636719 -8.792969 22.9375 -8.707031 C 22.242188 -8.617188 21.808594 -8.617188 21.632812 -8.617188 C 21.457031 -8.617188 20.980469 -8.617188 20.285156 -8.707031 C 19.585938 -8.792969 18.847656 -9.011719 18.0625 -9.359375 C 17.28125 -9.707031 16.582031 -10.230469 15.972656 -10.96875 C 15.363281 -11.664062 15.058594 -12.710938 15.058594 -14.058594 L 15.058594 -39.4375 C 15.058594 -40.480469 15.410156 -41.394531 16.105469 -42.179688 C 16.234375 -42.394531 16.234375 -42.613281 16.148438 -42.875 C 16.019531 -43.09375 15.800781 -43.222656 15.539062 -43.222656 L 5.917969 -43.222656 C 5.613281 -43.222656 5.398438 -43.09375 5.308594 -42.875 C 5.179688 -42.613281 5.179688 -42.394531 5.355469 -42.179688 C 6.050781 -41.394531 6.398438 -40.480469 6.398438 -39.4375 L 6.398438 -14.058594 C 6.398438 -11.882812 6.832031 -9.878906 7.703125 -8.050781 C 8.574219 -6.222656 9.792969 -4.65625 11.449219 -3.351562 C 12.839844 -2.21875 14.40625 -1.394531 16.148438 -0.828125 C 17.890625 -0.21875 19.71875 0.0429688 21.632812 0.0429688 C 23.546875 0.0429688 25.332031 -0.21875 27.074219 -0.828125 C 28.816406 -1.394531 30.382812 -2.21875 31.773438 -3.351562 C 33.429688 -4.65625 34.648438 -6.222656 35.519531 -8.050781 C 36.390625 -9.878906 36.824219 -11.882812 36.824219 -14.058594 L 36.824219 -39.4375 C 36.824219 -40.394531 37.171875 -41.308594 37.867188 -42.179688 C 38.042969 -42.394531 38.042969 -42.613281 37.914062 -42.875 C 37.78125 -43.09375 37.5625 -43.222656 37.304688 -43.222656 Z M 37.304688 -43.222656 "/></g></g></g><g fill="#ffc1b2" fill-opacity="0.502"><g transform="translate(571.133707, 397.129077)"><g><path d="M 47.140625 -3.65625 L 47.140625 -39.609375 C 47.140625 -40.566406 47.445312 -41.4375 48.140625 -42.179688 C 48.316406 -42.394531 48.359375 -42.613281 48.273438 -42.875 C 48.140625 -43.136719 47.96875 -43.265625 47.707031 -43.265625 L 38.523438 -43.265625 L 38.476562 -43.222656 L 38.476562 -43.265625 L 37.304688 -43.265625 C 37 -43.265625 36.78125 -43.136719 36.695312 -42.875 C 36.5625 -42.613281 36.5625 -42.394531 36.738281 -42.179688 C 36.910156 -41.917969 36.867188 -41.742188 36.695312 -41.613281 L 27.726562 -33.34375 C 27.421875 -33.082031 27.074219 -32.992188 26.726562 -32.992188 C 26.378906 -32.992188 26.074219 -33.082031 25.8125 -33.34375 L 16.714844 -41.699219 C 16.539062 -41.828125 16.539062 -41.960938 16.714844 -42.132812 C 16.886719 -42.351562 16.933594 -42.613281 16.84375 -42.875 C 16.714844 -43.136719 16.496094 -43.265625 16.191406 -43.265625 L 5.917969 -43.265625 C 5.613281 -43.265625 5.398438 -43.136719 5.308594 -42.875 C 5.179688 -42.613281 5.179688 -42.394531 5.355469 -42.179688 L 5.398438 -42.132812 C 6.050781 -41.394531 6.398438 -40.523438 6.398438 -39.566406 L 6.398438 -3.699219 C 6.398438 -2.699219 6.050781 -1.828125 5.398438 -1.132812 L 5.355469 -1.089844 C 5.179688 -0.828125 5.179688 -0.609375 5.308594 -0.347656 C 5.398438 -0.0859375 5.613281 0 5.917969 0 L 15.539062 0 C 15.800781 0 16.019531 -0.0859375 16.148438 -0.347656 C 16.234375 -0.609375 16.234375 -0.828125 16.105469 -1.089844 L 16.019531 -1.175781 C 15.320312 -1.871094 15.015625 -2.742188 15.015625 -3.742188 L 15.015625 -30.121094 C 15.015625 -30.382812 15.105469 -30.554688 15.363281 -30.644531 C 15.625 -30.730469 15.84375 -30.730469 16.0625 -30.554688 L 25.8125 -21.503906 C 26.074219 -21.242188 26.378906 -21.109375 26.769531 -21.109375 C 27.117188 -21.109375 27.464844 -21.242188 27.726562 -21.503906 L 37.476562 -30.554688 C 37.652344 -30.730469 37.867188 -30.730469 38.128906 -30.644531 C 38.390625 -30.554688 38.523438 -30.382812 38.523438 -30.121094 L 38.523438 -3.785156 C 38.523438 -2.828125 38.171875 -1.957031 37.476562 -1.21875 L 37.390625 -1.089844 C 37.214844 -0.828125 37.214844 -0.609375 37.347656 -0.347656 C 37.433594 -0.0859375 37.652344 0 37.957031 0 L 47.707031 0 C 47.96875 0 48.140625 -0.0859375 48.273438 -0.347656 C 48.359375 -0.609375 48.316406 -0.828125 48.140625 -1.089844 C 47.445312 -1.785156 47.140625 -2.65625 47.140625 -3.65625 Z M 47.140625 -3.65625 "/></g></g></g><g fill="#ffc1b2" fill-opacity="0.502"><g transform="translate(624.672555, 397.129077)"><g><path d="M 47.140625 -3.65625 L 47.140625 -39.609375 C 47.140625 -40.566406 47.445312 -41.4375 48.140625 -42.179688 C 48.316406 -42.394531 48.359375 -42.613281 48.273438 -42.875 C 48.140625 -43.136719 47.96875 -43.265625 47.707031 -43.265625 L 38.523438 -43.265625 L 38.476562 -43.222656 L 38.476562 -43.265625 L 37.304688 -43.265625 C 37 -43.265625 36.78125 -43.136719 36.695312 -42.875 C 36.5625 -42.613281 36.5625 -42.394531 36.738281 -42.179688 C 36.910156 -41.917969 36.867188 -41.742188 36.695312 -41.613281 L 27.726562 -33.34375 C 27.421875 -33.082031 27.074219 -32.992188 26.726562 -32.992188 C 26.378906 -32.992188 26.074219 -33.082031 25.8125 -33.34375 L 16.714844 -41.699219 C 16.539062 -41.828125 16.539062 -41.960938 16.714844 -42.132812 C 16.886719 -42.351562 16.933594 -42.613281 16.84375 -42.875 C 16.714844 -43.136719 16.496094 -43.265625 16.191406 -43.265625 L 5.917969 -43.265625 C 5.613281 -43.265625 5.398438 -43.136719 5.308594 -42.875 C 5.179688 -42.613281 5.179688 -42.394531 5.355469 -42.179688 L 5.398438 -42.132812 C 6.050781 -41.394531 6.398438 -40.523438 6.398438 -39.566406 L 6.398438 -3.699219 C 6.398438 -2.699219 6.050781 -1.828125 5.398438 -1.132812 L 5.355469 -1.089844 C 5.179688 -0.828125 5.179688 -0.609375 5.308594 -0.347656 C 5.398438 -0.0859375 5.613281 0 5.917969 0 L 15.539062 0 C 15.800781 0 16.019531 -0.0859375 16.148438 -0.347656 C 16.234375 -0.609375 16.234375 -0.828125 16.105469 -1.089844 L 16.019531 -1.175781 C 15.320312 -1.871094 15.015625 -2.742188 15.015625 -3.742188 L 15.015625 -30.121094 C 15.015625 -30.382812 15.105469 -30.554688 15.363281 -30.644531 C 15.625 -30.730469 15.84375 -30.730469 16.0625 -30.554688 L 25.8125 -21.503906 C 26.074219 -21.242188 26.378906 -21.109375 26.769531 -21.109375 C 27.117188 -21.109375 27.464844 -21.242188 27.726562 -21.503906 L 37.476562 -30.554688 C 37.652344 -30.730469 37.867188 -30.730469 38.128906 -30.644531 C 38.390625 -30.554688 38.523438 -30.382812 38.523438 -30.121094 L 38.523438 -3.785156 C 38.523438 -2.828125 38.171875 -1.957031 37.476562 -1.21875 L 37.390625 -1.089844 C 37.214844 -0.828125 37.214844 -0.609375 37.347656 -0.347656 C 37.433594 -0.0859375 37.652344 0 37.957031 0 L 47.707031 0 C 47.96875 0 48.140625 -0.0859375 48.273438 -0.347656 C 48.359375 -0.609375 48.316406 -0.828125 48.140625 -1.089844 C 47.445312 -1.785156 47.140625 -2.65625 47.140625 -3.65625 Z M 47.140625 -3.65625 "/></g></g></g><g fill="#ffc1b2" fill-opacity="0.502"><g transform="translate(678.211403, 397.129077)"><g><path d="M 15.058594 -3.832031 L 15.058594 -39.4375 C 15.058594 -40.480469 15.410156 -41.394531 16.105469 -42.179688 C 16.234375 -42.394531 16.234375 -42.613281 16.148438 -42.875 C 16.019531 -43.136719 15.800781 -43.265625 15.539062 -43.265625 L 5.917969 -43.265625 C 5.613281 -43.265625 5.398438 -43.136719 5.308594 -42.875 C 5.179688 -42.613281 5.179688 -42.394531 5.355469 -42.179688 C 6.050781 -41.394531 6.441406 -40.480469 6.441406 -39.4375 L 6.441406 -3.832031 C 6.441406 -2.785156 6.050781 -1.871094 5.355469 -1.089844 C 5.179688 -0.828125 5.179688 -0.609375 5.308594 -0.347656 C 5.398438 -0.0859375 5.613281 0 5.917969 0 L 15.539062 0 C 15.800781 0 16.019531 -0.0859375 16.148438 -0.347656 C 16.234375 -0.609375 16.234375 -0.828125 16.105469 -1.089844 C 15.757812 -1.4375 15.496094 -1.871094 15.320312 -2.351562 C 15.148438 -2.828125 15.058594 -3.308594 15.058594 -3.832031 Z M 15.058594 -3.832031 "/></g></g></g><g fill="#ffc1b2" fill-opacity="0.502"><g transform="translate(699.713994, 397.129077)"><g><path d="M 31.6875 -43.570312 C 30.949219 -42.875 30.078125 -42.570312 29.121094 -42.570312 L 5.917969 -42.570312 C 5.613281 -42.570312 5.398438 -42.4375 5.308594 -42.179688 C 5.179688 -41.917969 5.179688 -41.699219 5.355469 -41.480469 L 5.484375 -41.351562 C 6.179688 -40.566406 6.527344 -39.652344 6.527344 -38.609375 L 6.527344 -3.265625 C 6.527344 -2.742188 6.441406 -2.261719 6.269531 -1.785156 C 6.09375 -1.304688 5.832031 -0.871094 5.484375 -0.523438 L 5.355469 -0.390625 C 5.179688 -0.128906 5.179688 0.0859375 5.308594 0.347656 C 5.398438 0.609375 5.613281 0.695312 5.917969 0.695312 L 29.121094 0.695312 C 30.078125 0.695312 30.949219 1.042969 31.6875 1.699219 C 31.90625 1.914062 32.167969 1.957031 32.429688 1.828125 C 32.6875 1.742188 32.863281 1.523438 32.863281 1.175781 L 32.863281 -8.53125 C 32.863281 -8.792969 32.734375 -9.011719 32.472656 -9.140625 C 32.210938 -9.226562 31.949219 -9.183594 31.773438 -9.011719 C 30.992188 -8.269531 30.078125 -7.921875 29.03125 -7.921875 L 16.234375 -7.921875 C 15.929688 -7.921875 15.667969 -8.007812 15.453125 -8.226562 C 15.234375 -8.402344 15.148438 -8.660156 15.148438 -9.011719 L 15.148438 -15.539062 C 15.148438 -15.84375 15.234375 -16.105469 15.453125 -16.324219 C 15.667969 -16.496094 15.929688 -16.628906 16.234375 -16.628906 L 20.066406 -16.628906 C 21.109375 -16.628906 22.023438 -16.234375 22.808594 -15.539062 C 23.027344 -15.363281 23.242188 -15.363281 23.503906 -15.496094 C 23.765625 -15.625 23.894531 -15.84375 23.894531 -16.105469 L 23.894531 -25.769531 C 23.894531 -26.027344 23.765625 -26.203125 23.503906 -26.332031 C 23.242188 -26.464844 23.027344 -26.464844 22.808594 -26.332031 C 22.023438 -25.59375 21.109375 -25.246094 20.066406 -25.246094 L 16.234375 -25.246094 C 15.929688 -25.246094 15.667969 -25.332031 15.453125 -25.550781 C 15.234375 -25.722656 15.148438 -25.984375 15.148438 -26.332031 L 15.148438 -32.863281 C 15.148438 -33.167969 15.234375 -33.429688 15.453125 -33.648438 C 15.667969 -33.820312 15.929688 -33.953125 16.234375 -33.953125 L 29.03125 -33.953125 C 30.078125 -33.953125 30.992188 -33.558594 31.773438 -32.863281 C 31.949219 -32.644531 32.210938 -32.601562 32.472656 -32.734375 C 32.734375 -32.820312 32.863281 -33.039062 32.863281 -33.34375 L 32.863281 -43.09375 C 32.863281 -43.351562 32.6875 -43.570312 32.429688 -43.703125 C 32.167969 -43.789062 31.90625 -43.746094 31.6875 -43.570312 Z M 31.6875 -43.570312 "/></g></g></g><g fill="#ffc1b2" fill-opacity="0.502"><g transform="translate(737.800588, 397.129077)"><g><path d="M 35.78125 -32.558594 L 35.5625 -32.820312 C 34.953125 -33.429688 34.5625 -34.125 34.300781 -34.910156 C 33.515625 -37.347656 31.90625 -39.347656 29.554688 -40.914062 C 28.25 -41.742188 26.769531 -42.394531 25.113281 -42.832031 C 23.460938 -43.265625 21.761719 -43.484375 19.933594 -43.484375 C 18.105469 -43.484375 16.324219 -43.222656 14.625 -42.789062 C 12.925781 -42.351562 11.402344 -41.699219 10.054688 -40.871094 C 8.226562 -39.742188 6.878906 -38.390625 5.917969 -36.78125 C 4.960938 -35.171875 4.527344 -33.429688 4.527344 -31.515625 C 4.527344 -27.859375 6.222656 -24.722656 9.707031 -22.15625 C 10.925781 -21.199219 12.230469 -20.414062 13.667969 -19.71875 C 15.105469 -19.019531 16.582031 -18.324219 18.0625 -17.714844 C 18.933594 -17.28125 19.890625 -16.84375 20.847656 -16.410156 C 21.808594 -15.972656 22.675781 -15.496094 23.460938 -15.058594 C 24.246094 -14.582031 24.898438 -14.101562 25.417969 -13.625 C 25.941406 -13.101562 26.203125 -12.621094 26.203125 -12.144531 C 26.203125 -11.535156 25.984375 -10.96875 25.550781 -10.535156 C 25.113281 -10.097656 24.550781 -9.707031 23.894531 -9.445312 C 23.242188 -9.183594 22.546875 -8.964844 21.761719 -8.835938 C 20.980469 -8.660156 20.285156 -8.617188 19.585938 -8.617188 C 18.714844 -8.617188 17.847656 -8.707031 16.886719 -8.921875 C 15.929688 -9.097656 15.105469 -9.445312 14.449219 -9.925781 C 14.277344 -10.054688 14.144531 -10.230469 14.144531 -10.445312 C 14.101562 -10.664062 14.144531 -10.839844 14.320312 -11.011719 L 14.363281 -11.054688 C 14.496094 -11.273438 14.496094 -11.492188 14.40625 -11.753906 C 14.277344 -12.011719 14.058594 -12.144531 13.796875 -12.144531 L 4.179688 -12.144531 C 3.875 -12.144531 3.65625 -12.011719 3.570312 -11.753906 C 3.4375 -11.492188 3.4375 -11.273438 3.613281 -11.054688 L 3.785156 -10.882812 C 4.394531 -10.183594 4.789062 -9.445312 5.050781 -8.707031 C 5.832031 -6.179688 7.398438 -4.179688 9.835938 -2.65625 C 11.144531 -1.785156 12.667969 -1.132812 14.320312 -0.695312 C 15.972656 -0.21875 17.757812 0 19.585938 0 C 21.761719 0 23.808594 -0.304688 25.679688 -0.914062 C 27.550781 -1.523438 29.164062 -2.351562 30.511719 -3.4375 C 31.863281 -4.484375 32.90625 -5.789062 33.691406 -7.269531 C 34.429688 -8.75 34.820312 -10.359375 34.820312 -12.144531 C 34.820312 -14.015625 34.386719 -15.667969 33.558594 -17.0625 C 32.734375 -18.457031 31.6875 -19.675781 30.382812 -20.71875 C 29.078125 -21.761719 27.683594 -22.632812 26.117188 -23.417969 C 24.550781 -24.199219 23.027344 -24.898438 21.546875 -25.59375 C 20.542969 -26.027344 19.542969 -26.464844 18.542969 -26.941406 C 17.542969 -27.378906 16.628906 -27.859375 15.84375 -28.378906 C 15.058594 -28.859375 14.40625 -29.382812 13.886719 -29.902344 C 13.363281 -30.425781 13.144531 -30.949219 13.144531 -31.515625 C 13.144531 -31.992188 13.320312 -32.429688 13.753906 -32.863281 C 14.144531 -33.296875 14.667969 -33.648438 15.320312 -33.953125 C 15.929688 -34.210938 16.671875 -34.429688 17.496094 -34.605469 C 18.28125 -34.777344 19.109375 -34.867188 19.933594 -34.867188 C 20.894531 -34.867188 21.851562 -34.734375 22.722656 -34.5625 C 23.589844 -34.34375 24.289062 -34.039062 24.898438 -33.648438 C 25.070312 -33.515625 25.203125 -33.34375 25.203125 -33.125 C 25.203125 -32.90625 25.160156 -32.734375 25.027344 -32.601562 L 25.027344 -32.558594 C 24.855469 -32.296875 24.855469 -32.078125 24.984375 -31.863281 C 25.070312 -31.601562 25.289062 -31.515625 25.59375 -31.515625 L 35.214844 -31.515625 C 35.476562 -31.515625 35.691406 -31.601562 35.824219 -31.863281 C 35.910156 -32.078125 35.910156 -32.296875 35.78125 -32.558594 Z M 35.78125 -32.558594 "/></g></g></g><g fill="#fffaef" fill-opacity="1"><g transform="translate(181.626071, 397.618043)"><g><path d="M 37.824219 -1.089844 L 37.738281 -1.132812 C 37.042969 -1.871094 36.738281 -2.742188 36.738281 -3.785156 L 36.738281 -39.480469 C 36.738281 -40.480469 37.042969 -41.351562 37.738281 -42.132812 L 37.824219 -42.179688 C 37.957031 -42.394531 37.957031 -42.613281 37.824219 -42.875 C 37.695312 -43.136719 37.519531 -43.265625 37.257812 -43.265625 L 27.597656 -43.265625 C 27.335938 -43.265625 27.117188 -43.136719 26.988281 -42.875 C 26.855469 -42.613281 26.855469 -42.394531 27.03125 -42.179688 L 27.074219 -42.179688 C 27.769531 -41.394531 28.117188 -40.480469 28.117188 -39.523438 L 28.117188 -27.378906 C 28.117188 -26.941406 27.945312 -26.59375 27.683594 -26.332031 C 27.378906 -26.074219 27.03125 -25.941406 26.636719 -25.941406 L 16.539062 -25.941406 C 16.105469 -25.941406 15.757812 -26.074219 15.496094 -26.332031 C 15.191406 -26.59375 15.058594 -26.941406 15.058594 -27.378906 L 15.058594 -39.566406 C 15.058594 -40.523438 15.410156 -41.394531 16.105469 -42.179688 C 16.234375 -42.394531 16.234375 -42.613281 16.148438 -42.875 C 16.019531 -43.136719 15.800781 -43.265625 15.539062 -43.265625 L 5.917969 -43.265625 C 5.613281 -43.265625 5.398438 -43.136719 5.308594 -42.875 C 5.179688 -42.613281 5.179688 -42.394531 5.355469 -42.179688 L 5.441406 -42.089844 C 6.09375 -41.351562 6.441406 -40.480469 6.441406 -39.480469 L 6.441406 -3.832031 C 6.441406 -2.785156 6.09375 -1.871094 5.441406 -1.175781 L 5.355469 -1.089844 C 5.179688 -0.828125 5.179688 -0.609375 5.308594 -0.347656 C 5.398438 -0.0859375 5.613281 0 5.917969 0 L 15.539062 0 C 15.800781 0 16.019531 -0.0859375 16.148438 -0.347656 C 16.234375 -0.609375 16.234375 -0.828125 16.105469 -1.089844 C 15.410156 -1.871094 15.058594 -2.742188 15.058594 -3.742188 L 15.058594 -15.886719 C 15.058594 -16.277344 15.191406 -16.628906 15.496094 -16.886719 C 15.757812 -17.148438 16.105469 -17.324219 16.539062 -17.324219 L 26.636719 -17.324219 C 27.03125 -17.324219 27.378906 -17.148438 27.683594 -16.886719 C 27.945312 -16.628906 28.117188 -16.277344 28.117188 -15.886719 L 28.117188 -3.742188 C 28.117188 -2.742188 27.769531 -1.871094 27.074219 -1.132812 L 27.03125 -1.089844 C 26.855469 -0.828125 26.855469 -0.609375 26.988281 -0.347656 C 27.117188 -0.0859375 27.335938 0 27.597656 0 L 37.257812 0 C 37.519531 0 37.695312 -0.0859375 37.824219 -0.347656 C 37.957031 -0.609375 37.957031 -0.828125 37.824219 -1.089844 Z M 37.824219 -1.089844 "/></g></g></g><g fill="#fffaef" fill-opacity="1"><g transform="translate(224.805376, 397.618043)"><g><path d="M 31.6875 -43.570312 C 30.949219 -42.875 30.078125 -42.570312 29.121094 -42.570312 L 5.917969 -42.570312 C 5.613281 -42.570312 5.398438 -42.4375 5.308594 -42.179688 C 5.179688 -41.917969 5.179688 -41.699219 5.355469 -41.480469 L 5.484375 -41.351562 C 6.179688 -40.566406 6.527344 -39.652344 6.527344 -38.609375 L 6.527344 -3.265625 C 6.527344 -2.742188 6.441406 -2.261719 6.269531 -1.785156 C 6.09375 -1.304688 5.832031 -0.871094 5.484375 -0.523438 L 5.355469 -0.390625 C 5.179688 -0.128906 5.179688 0.0859375 5.308594 0.347656 C 5.398438 0.609375 5.613281 0.695312 5.917969 0.695312 L 29.121094 0.695312 C 30.078125 0.695312 30.949219 1.042969 31.6875 1.699219 C 31.90625 1.914062 32.167969 1.957031 32.429688 1.828125 C 32.6875 1.742188 32.863281 1.523438 32.863281 1.175781 L 32.863281 -8.53125 C 32.863281 -8.792969 32.734375 -9.011719 32.472656 -9.140625 C 32.210938 -9.226562 31.949219 -9.183594 31.773438 -9.011719 C 30.992188 -8.269531 30.078125 -7.921875 29.03125 -7.921875 L 16.234375 -7.921875 C 15.929688 -7.921875 15.667969 -8.007812 15.453125 -8.226562 C 15.234375 -8.402344 15.148438 -8.660156 15.148438 -9.011719 L 15.148438 -15.539062 C 15.148438 -15.84375 15.234375 -16.105469 15.453125 -16.324219 C 15.667969 -16.496094 15.929688 -16.628906 16.234375 -16.628906 L 20.066406 -16.628906 C 21.109375 -16.628906 22.023438 -16.234375 22.808594 -15.539062 C 23.027344 -15.363281 23.242188 -15.363281 23.503906 -15.496094 C 23.765625 -15.625 23.894531 -15.84375 23.894531 -16.105469 L 23.894531 -25.769531 C 23.894531 -26.027344 23.765625 -26.203125 23.503906 -26.332031 C 23.242188 -26.464844 23.027344 -26.464844 22.808594 -26.332031 C 22.023438 -25.59375 21.109375 -25.246094 20.066406 -25.246094 L 16.234375 -25.246094 C 15.929688 -25.246094 15.667969 -25.332031 15.453125 -25.550781 C 15.234375 -25.722656 15.148438 -25.984375 15.148438 -26.332031 L 15.148438 -32.863281 C 15.148438 -33.167969 15.234375 -33.429688 15.453125 -33.648438 C 15.667969 -33.820312 15.929688 -33.953125 16.234375 -33.953125 L 29.03125 -33.953125 C 30.078125 -33.953125 30.992188 -33.558594 31.773438 -32.863281 C 31.949219 -32.644531 32.210938 -32.601562 32.472656 -32.734375 C 32.734375 -32.820312 32.863281 -33.039062 32.863281 -33.34375 L 32.863281 -43.09375 C 32.863281 -43.351562 32.6875 -43.570312 32.429688 -43.703125 C 32.167969 -43.789062 31.90625 -43.746094 31.6875 -43.570312 Z M 31.6875 -43.570312 "/></g></g></g><g fill="#fffaef" fill-opacity="1"><g transform="translate(262.89197, 397.618043)"><g><path d="M 39.609375 -0.785156 C 39.609375 -0.957031 39.523438 -1.089844 39.390625 -1.175781 C 38.390625 -2.003906 37.738281 -3.046875 37.390625 -4.351562 L 26.988281 -40.304688 C 26.769531 -41.003906 26.898438 -41.65625 27.421875 -42.179688 C 27.550781 -42.394531 27.550781 -42.613281 27.464844 -42.875 C 27.335938 -43.136719 27.117188 -43.265625 26.855469 -43.265625 L 15.363281 -43.265625 C 15.105469 -43.265625 14.886719 -43.136719 14.753906 -42.875 C 14.625 -42.613281 14.625 -42.394531 14.800781 -42.179688 C 15.320312 -41.65625 15.453125 -41.003906 15.234375 -40.304688 L 4.875 -4.308594 C 4.527344 -3.089844 3.832031 -2.046875 2.828125 -1.175781 C 2.699219 -1.042969 2.613281 -0.914062 2.613281 -0.785156 C 2.566406 -0.566406 2.613281 -0.390625 2.742188 -0.21875 C 2.871094 -0.0429688 3.046875 0 3.308594 0 L 13.40625 0 C 13.667969 0 13.886719 -0.0859375 13.972656 -0.347656 C 14.058594 -0.609375 14.058594 -0.828125 13.886719 -1.042969 C 13.363281 -1.566406 13.230469 -2.21875 13.40625 -2.917969 L 14.753906 -7.441406 C 14.886719 -7.921875 15.148438 -8.3125 15.539062 -8.574219 C 15.886719 -8.835938 16.324219 -9.011719 16.84375 -9.011719 L 25.417969 -9.011719 C 25.898438 -9.011719 26.332031 -8.835938 26.726562 -8.574219 C 27.074219 -8.3125 27.335938 -7.921875 27.507812 -7.441406 L 28.816406 -2.917969 C 28.988281 -2.21875 28.816406 -1.609375 28.378906 -1.089844 L 28.378906 -1.042969 C 28.207031 -0.785156 28.207031 -0.566406 28.335938 -0.347656 C 28.421875 -0.0859375 28.640625 0 28.945312 0 L 38.957031 0 C 39.175781 0 39.347656 -0.0429688 39.480469 -0.21875 C 39.609375 -0.390625 39.652344 -0.566406 39.609375 -0.785156 Z M 23.941406 -17.628906 L 18.324219 -17.628906 C 18.152344 -17.628906 18.019531 -17.671875 17.933594 -17.800781 C 17.800781 -17.933594 17.757812 -18.105469 17.847656 -18.28125 L 20.675781 -27.988281 C 20.71875 -28.207031 20.847656 -28.335938 21.109375 -28.335938 C 21.371094 -28.335938 21.503906 -28.207031 21.589844 -27.988281 L 24.375 -18.28125 C 24.417969 -18.105469 24.375 -17.933594 24.289062 -17.800781 C 24.199219 -17.671875 24.070312 -17.628906 23.941406 -17.628906 Z M 23.941406 -17.628906 "/></g></g></g><g fill="#fffaef" fill-opacity="1"><g transform="translate(305.157207, 397.618043)"><g><path d="M 31.644531 -9.621094 L 31.121094 -9.183594 C 30.644531 -8.75 30.121094 -8.574219 29.554688 -8.574219 L 16.0625 -8.574219 C 15.757812 -8.574219 15.496094 -8.660156 15.320312 -8.835938 C 15.105469 -9.011719 15.015625 -9.269531 15.015625 -9.621094 L 15.015625 -39.390625 C 15.015625 -40.394531 15.363281 -41.308594 16.0625 -42.089844 L 16.105469 -42.132812 C 16.234375 -42.351562 16.234375 -42.570312 16.148438 -42.832031 C 16.019531 -43.046875 15.800781 -43.179688 15.539062 -43.179688 L 5.917969 -43.179688 C 5.613281 -43.179688 5.398438 -43.046875 5.308594 -42.832031 C 5.179688 -42.570312 5.179688 -42.351562 5.355469 -42.132812 C 6.050781 -41.351562 6.398438 -40.4375 6.398438 -39.4375 L 6.398438 -0.957031 C 6.398438 -0.652344 6.484375 -0.390625 6.703125 -0.21875 C 6.878906 0 7.136719 0.0859375 7.441406 0.0859375 L 29.554688 0.0859375 C 30.121094 0.0859375 30.644531 0.304688 31.121094 0.695312 L 31.644531 1.132812 C 31.863281 1.304688 32.078125 1.304688 32.339844 1.175781 C 32.558594 1.089844 32.6875 0.871094 32.6875 0.566406 L 32.6875 -9.054688 C 32.6875 -9.316406 32.558594 -9.53125 32.339844 -9.664062 C 32.078125 -9.75 31.863281 -9.75 31.644531 -9.621094 Z M 31.644531 -9.621094 "/></g></g></g><g fill="#fffaef" fill-opacity="1"><g transform="translate(340.501544, 397.618043)"><g><path d="M 34.082031 -44.355469 L 34.039062 -44.3125 C 33.253906 -43.613281 32.382812 -43.265625 31.382812 -43.265625 L 9.011719 -43.265625 C 7.964844 -43.265625 7.09375 -43.613281 6.3125 -44.3125 L 6.3125 -44.355469 C 6.050781 -44.484375 5.832031 -44.484375 5.570312 -44.355469 C 5.308594 -44.222656 5.222656 -44.050781 5.222656 -43.789062 L 5.222656 -34.125 C 5.222656 -33.820312 5.308594 -33.601562 5.570312 -33.515625 C 5.832031 -33.386719 6.050781 -33.386719 6.3125 -33.558594 C 7.09375 -34.257812 7.964844 -34.648438 9.011719 -34.648438 L 15.015625 -34.648438 C 15.234375 -34.648438 15.453125 -34.5625 15.625 -34.386719 C 15.800781 -34.210938 15.886719 -33.996094 15.886719 -33.777344 L 15.886719 -3.832031 C 15.886719 -2.785156 15.539062 -1.871094 14.84375 -1.132812 L 14.800781 -1.089844 C 14.625 -0.828125 14.625 -0.609375 14.753906 -0.347656 C 14.84375 -0.0859375 15.058594 0 15.363281 0 L 25.027344 0 C 25.289062 0 25.464844 -0.0859375 25.59375 -0.347656 C 25.722656 -0.609375 25.722656 -0.828125 25.59375 -1.089844 C 24.855469 -1.871094 24.503906 -2.742188 24.503906 -3.785156 L 24.503906 -33.777344 C 24.503906 -33.996094 24.59375 -34.210938 24.765625 -34.386719 C 24.941406 -34.5625 25.113281 -34.648438 25.375 -34.648438 L 31.382812 -34.648438 C 32.429688 -34.648438 33.296875 -34.257812 34.039062 -33.558594 L 34.082031 -33.558594 C 34.300781 -33.386719 34.515625 -33.386719 34.777344 -33.515625 C 35.039062 -33.601562 35.171875 -33.820312 35.171875 -34.125 L 35.171875 -43.789062 C 35.171875 -44.050781 35.039062 -44.222656 34.777344 -44.355469 C 34.515625 -44.484375 34.300781 -44.484375 34.082031 -44.355469 Z M 34.082031 -44.355469 "/></g></g></g><g fill="#fffaef" fill-opacity="1"><g transform="translate(380.895086, 397.618043)"><g><path d="M 37.824219 -1.089844 L 37.738281 -1.132812 C 37.042969 -1.871094 36.738281 -2.742188 36.738281 -3.785156 L 36.738281 -39.480469 C 36.738281 -40.480469 37.042969 -41.351562 37.738281 -42.132812 L 37.824219 -42.179688 C 37.957031 -42.394531 37.957031 -42.613281 37.824219 -42.875 C 37.695312 -43.136719 37.519531 -43.265625 37.257812 -43.265625 L 27.597656 -43.265625 C 27.335938 -43.265625 27.117188 -43.136719 26.988281 -42.875 C 26.855469 -42.613281 26.855469 -42.394531 27.03125 -42.179688 L 27.074219 -42.179688 C 27.769531 -41.394531 28.117188 -40.480469 28.117188 -39.523438 L 28.117188 -27.378906 C 28.117188 -26.941406 27.945312 -26.59375 27.683594 -26.332031 C 27.378906 -26.074219 27.03125 -25.941406 26.636719 -25.941406 L 16.539062 -25.941406 C 16.105469 -25.941406 15.757812 -26.074219 15.496094 -26.332031 C 15.191406 -26.59375 15.058594 -26.941406 15.058594 -27.378906 L 15.058594 -39.566406 C 15.058594 -40.523438 15.410156 -41.394531 16.105469 -42.179688 C 16.234375 -42.394531 16.234375 -42.613281 16.148438 -42.875 C 16.019531 -43.136719 15.800781 -43.265625 15.539062 -43.265625 L 5.917969 -43.265625 C 5.613281 -43.265625 5.398438 -43.136719 5.308594 -42.875 C 5.179688 -42.613281 5.179688 -42.394531 5.355469 -42.179688 L 5.441406 -42.089844 C 6.09375 -41.351562 6.441406 -40.480469 6.441406 -39.480469 L 6.441406 -3.832031 C 6.441406 -2.785156 6.09375 -1.871094 5.441406 -1.175781 L 5.355469 -1.089844 C 5.179688 -0.828125 5.179688 -0.609375 5.308594 -0.347656 C 5.398438 -0.0859375 5.613281 0 5.917969 0 L 15.539062 0 C 15.800781 0 16.019531 -0.0859375 16.148438 -0.347656 C 16.234375 -0.609375 16.234375 -0.828125 16.105469 -1.089844 C 15.410156 -1.871094 15.058594 -2.742188 15.058594 -3.742188 L 15.058594 -15.886719 C 15.058594 -16.277344 15.191406 -16.628906 15.496094 -16.886719 C 15.757812 -17.148438 16.105469 -17.324219 16.539062 -17.324219 L 26.636719 -17.324219 C 27.03125 -17.324219 27.378906 -17.148438 27.683594 -16.886719 C 27.945312 -16.628906 28.117188 -16.277344 28.117188 -15.886719 L 28.117188 -3.742188 C 28.117188 -2.742188 27.769531 -1.871094 27.074219 -1.132812 L 27.03125 -1.089844 C 26.855469 -0.828125 26.855469 -0.609375 26.988281 -0.347656 C 27.117188 -0.0859375 27.335938 0 27.597656 0 L 37.257812 0 C 37.519531 0 37.695312 -0.0859375 37.824219 -0.347656 C 37.957031 -0.609375 37.957031 -0.828125 37.824219 -1.089844 Z M 37.824219 -1.089844 "/></g></g></g><g fill="#fffaef" fill-opacity="1"><g transform="translate(424.074391, 397.618043)"><g><path d="M 38.128906 -42.832031 C 38 -43.09375 37.824219 -43.222656 37.609375 -43.222656 L 37.609375 -43.265625 L 26.683594 -43.265625 C 26.378906 -43.265625 26.160156 -43.136719 26.074219 -42.875 C 25.941406 -42.613281 25.984375 -42.351562 26.203125 -42.179688 C 26.550781 -41.742188 26.59375 -41.308594 26.332031 -40.871094 L 20.804688 -31.078125 C 20.71875 -30.90625 20.542969 -30.859375 20.371094 -30.859375 C 20.195312 -30.859375 20.066406 -30.90625 19.980469 -31.078125 L 14.449219 -40.871094 C 14.191406 -41.351562 14.234375 -41.785156 14.625 -42.179688 C 14.800781 -42.351562 14.800781 -42.613281 14.710938 -42.875 C 14.625 -43.136719 14.40625 -43.265625 14.144531 -43.265625 L 3.175781 -43.265625 L 3.222656 -43.222656 C 2.960938 -43.222656 2.742188 -43.09375 2.65625 -42.832031 C 2.566406 -42.65625 2.566406 -42.527344 2.613281 -42.394531 C 2.65625 -42.222656 2.742188 -42.132812 2.871094 -42.046875 L 2.917969 -42.003906 C 3.480469 -41.570312 4.003906 -41.089844 4.441406 -40.566406 C 4.875 -40.046875 5.308594 -39.480469 5.660156 -38.871094 L 14.667969 -22.980469 C 15.625 -21.328125 16.105469 -19.542969 16.105469 -17.628906 L 16.105469 -3.699219 C 16.105469 -2.742188 15.757812 -1.871094 15.105469 -1.132812 C 14.84375 -0.871094 14.800781 -0.652344 14.929688 -0.390625 C 15.015625 -0.128906 15.234375 0 15.582031 0 L 25.332031 0 C 25.59375 0 25.8125 -0.0859375 25.898438 -0.347656 C 25.984375 -0.609375 25.984375 -0.828125 25.8125 -1.042969 C 25.070312 -1.828125 24.722656 -2.742188 24.722656 -3.785156 L 24.722656 -17.628906 C 24.722656 -19.5 25.160156 -21.285156 26.117188 -22.980469 L 35.125 -38.871094 C 35.824219 -40.089844 36.738281 -41.132812 37.914062 -42.046875 C 38.171875 -42.222656 38.261719 -42.484375 38.128906 -42.832031 Z M 38.128906 -42.832031 "/></g></g></g><g fill="#fffaef" fill-opacity="1"><g transform="translate(464.903188, 397.618043)"><g/></g></g><g fill="#fffaef" fill-opacity="1"><g transform="translate(491.019731, 397.618043)"><g><path d="M 30.164062 -21.808594 L 24.984375 -21.808594 C 23.984375 -21.808594 23.113281 -22.113281 22.417969 -22.808594 L 22.242188 -22.980469 C 21.980469 -23.113281 21.761719 -23.113281 21.503906 -23.027344 C 21.242188 -22.894531 21.152344 -22.675781 21.152344 -22.417969 L 21.152344 -12.753906 C 21.152344 -12.492188 21.242188 -12.273438 21.503906 -12.144531 C 21.761719 -12.011719 21.980469 -12.011719 22.242188 -12.1875 L 22.722656 -12.667969 C 23.070312 -13.015625 23.503906 -13.1875 24.027344 -13.1875 C 24.070312 -13.1875 24.113281 -13.144531 24.113281 -13.058594 L 24.113281 -9.664062 C 24.113281 -9.359375 23.984375 -9.097656 23.808594 -8.921875 C 23.636719 -8.707031 23.375 -8.617188 23.070312 -8.617188 C 20.71875 -8.617188 18.761719 -9.054688 17.238281 -9.96875 C 15.714844 -10.839844 14.496094 -11.96875 13.625 -13.320312 C 12.753906 -14.625 12.101562 -16.0625 11.753906 -17.542969 C 11.402344 -19.019531 11.230469 -20.414062 11.230469 -21.632812 C 11.230469 -23.375 11.492188 -25.027344 12.011719 -26.59375 C 12.535156 -28.164062 13.320312 -29.554688 14.277344 -30.773438 C 16.367188 -33.296875 19.324219 -34.605469 23.070312 -34.605469 L 27.421875 -34.605469 C 28.378906 -34.605469 29.25 -34.257812 29.992188 -33.648438 C 30.164062 -33.429688 30.382812 -33.386719 30.644531 -33.472656 C 30.90625 -33.558594 31.035156 -33.777344 31.035156 -34.082031 L 31.035156 -43.832031 C 31.035156 -44.09375 30.90625 -44.3125 30.6875 -44.441406 C 30.425781 -44.527344 30.207031 -44.527344 29.992188 -44.398438 L 29.816406 -44.222656 C 29.078125 -43.570312 28.207031 -43.265625 27.246094 -43.265625 L 23.070312 -43.265625 C 19.890625 -43.265625 17.019531 -42.65625 14.40625 -41.480469 C 11.796875 -40.261719 9.574219 -38.523438 7.660156 -36.257812 C 6.007812 -34.300781 4.746094 -32.078125 3.875 -29.554688 C 3.003906 -27.03125 2.613281 -24.417969 2.613281 -21.632812 C 2.613281 -18.933594 3.046875 -16.277344 3.917969 -13.710938 C 4.789062 -11.097656 6.050781 -8.792969 7.792969 -6.789062 C 9.53125 -4.746094 11.664062 -3.089844 14.191406 -1.871094 C 16.714844 -0.609375 19.675781 0 23.070312 0 L 30.164062 0 C 30.859375 0 31.46875 -0.21875 31.992188 -0.738281 C 32.472656 -1.21875 32.734375 -1.828125 32.734375 -2.566406 L 32.734375 -19.238281 C 32.734375 -19.933594 32.472656 -20.5 31.992188 -21.023438 C 31.46875 -21.546875 30.859375 -21.808594 30.164062 -21.808594 Z M 30.164062 -21.808594 "/></g></g></g><g fill="#fffaef" fill-opacity="1"><g transform="translate(529.019263, 397.618043)"><g><path d="M 37.304688 -43.222656 L 27.683594 -43.222656 C 27.378906 -43.222656 27.160156 -43.09375 27.074219 -42.875 C 26.941406 -42.613281 26.941406 -42.394531 27.117188 -42.179688 C 27.8125 -41.351562 28.207031 -40.4375 28.207031 -39.4375 L 28.207031 -14.058594 C 28.207031 -12.710938 27.859375 -11.664062 27.246094 -10.96875 C 26.636719 -10.230469 25.941406 -9.707031 25.160156 -9.359375 C 24.375 -9.011719 23.636719 -8.792969 22.9375 -8.707031 C 22.242188 -8.617188 21.808594 -8.617188 21.632812 -8.617188 C 21.457031 -8.617188 20.980469 -8.617188 20.285156 -8.707031 C 19.585938 -8.792969 18.847656 -9.011719 18.0625 -9.359375 C 17.28125 -9.707031 16.582031 -10.230469 15.972656 -10.96875 C 15.363281 -11.664062 15.058594 -12.710938 15.058594 -14.058594 L 15.058594 -39.4375 C 15.058594 -40.480469 15.410156 -41.394531 16.105469 -42.179688 C 16.234375 -42.394531 16.234375 -42.613281 16.148438 -42.875 C 16.019531 -43.09375 15.800781 -43.222656 15.539062 -43.222656 L 5.917969 -43.222656 C 5.613281 -43.222656 5.398438 -43.09375 5.308594 -42.875 C 5.179688 -42.613281 5.179688 -42.394531 5.355469 -42.179688 C 6.050781 -41.394531 6.398438 -40.480469 6.398438 -39.4375 L 6.398438 -14.058594 C 6.398438 -11.882812 6.832031 -9.878906 7.703125 -8.050781 C 8.574219 -6.222656 9.792969 -4.65625 11.449219 -3.351562 C 12.839844 -2.21875 14.40625 -1.394531 16.148438 -0.828125 C 17.890625 -0.21875 19.71875 0.0429688 21.632812 0.0429688 C 23.546875 0.0429688 25.332031 -0.21875 27.074219 -0.828125 C 28.816406 -1.394531 30.382812 -2.21875 31.773438 -3.351562 C 33.429688 -4.65625 34.648438 -6.222656 35.519531 -8.050781 C 36.390625 -9.878906 36.824219 -11.882812 36.824219 -14.058594 L 36.824219 -39.4375 C 36.824219 -40.394531 37.171875 -41.308594 37.867188 -42.179688 C 38.042969 -42.394531 38.042969 -42.613281 37.914062 -42.875 C 37.78125 -43.09375 37.5625 -43.222656 37.304688 -43.222656 Z M 37.304688 -43.222656 "/></g></g></g><g fill="#fffaef" fill-opacity="1"><g transform="translate(572.28563, 397.618043)"><g><path d="M 47.140625 -3.65625 L 47.140625 -39.609375 C 47.140625 -40.566406 47.445312 -41.4375 48.140625 -42.179688 C 48.316406 -42.394531 48.359375 -42.613281 48.273438 -42.875 C 48.140625 -43.136719 47.96875 -43.265625 47.707031 -43.265625 L 38.523438 -43.265625 L 38.476562 -43.222656 L 38.476562 -43.265625 L 37.304688 -43.265625 C 37 -43.265625 36.78125 -43.136719 36.695312 -42.875 C 36.5625 -42.613281 36.5625 -42.394531 36.738281 -42.179688 C 36.910156 -41.917969 36.867188 -41.742188 36.695312 -41.613281 L 27.726562 -33.34375 C 27.421875 -33.082031 27.074219 -32.992188 26.726562 -32.992188 C 26.378906 -32.992188 26.074219 -33.082031 25.8125 -33.34375 L 16.714844 -41.699219 C 16.539062 -41.828125 16.539062 -41.960938 16.714844 -42.132812 C 16.886719 -42.351562 16.933594 -42.613281 16.84375 -42.875 C 16.714844 -43.136719 16.496094 -43.265625 16.191406 -43.265625 L 5.917969 -43.265625 C 5.613281 -43.265625 5.398438 -43.136719 5.308594 -42.875 C 5.179688 -42.613281 5.179688 -42.394531 5.355469 -42.179688 L 5.398438 -42.132812 C 6.050781 -41.394531 6.398438 -40.523438 6.398438 -39.566406 L 6.398438 -3.699219 C 6.398438 -2.699219 6.050781 -1.828125 5.398438 -1.132812 L 5.355469 -1.089844 C 5.179688 -0.828125 5.179688 -0.609375 5.308594 -0.347656 C 5.398438 -0.0859375 5.613281 0 5.917969 0 L 15.539062 0 C 15.800781 0 16.019531 -0.0859375 16.148438 -0.347656 C 16.234375 -0.609375 16.234375 -0.828125 16.105469 -1.089844 L 16.019531 -1.175781 C 15.320312 -1.871094 15.015625 -2.742188 15.015625 -3.742188 L 15.015625 -30.121094 C 15.015625 -30.382812 15.105469 -30.554688 15.363281 -30.644531 C 15.625 -30.730469 15.84375 -30.730469 16.0625 -30.554688 L 25.8125 -21.503906 C 26.074219 -21.242188 26.378906 -21.109375 26.769531 -21.109375 C 27.117188 -21.109375 27.464844 -21.242188 27.726562 -21.503906 L 37.476562 -30.554688 C 37.652344 -30.730469 37.867188 -30.730469 38.128906 -30.644531 C 38.390625 -30.554688 38.523438 -30.382812 38.523438 -30.121094 L 38.523438 -3.785156 C 38.523438 -2.828125 38.171875 -1.957031 37.476562 -1.21875 L 37.390625 -1.089844 C 37.214844 -0.828125 37.214844 -0.609375 37.347656 -0.347656 C 37.433594 -0.0859375 37.652344 0 37.957031 0 L 47.707031 0 C 47.96875 0 48.140625 -0.0859375 48.273438 -0.347656 C 48.359375 -0.609375 48.316406 -0.828125 48.140625 -1.089844 C 47.445312 -1.785156 47.140625 -2.65625 47.140625 -3.65625 Z M 47.140625 -3.65625 "/></g></g></g><g fill="#fffaef" fill-opacity="1"><g transform="translate(625.824478, 397.618043)"><g><path d="M 47.140625 -3.65625 L 47.140625 -39.609375 C 47.140625 -40.566406 47.445312 -41.4375 48.140625 -42.179688 C 48.316406 -42.394531 48.359375 -42.613281 48.273438 -42.875 C 48.140625 -43.136719 47.96875 -43.265625 47.707031 -43.265625 L 38.523438 -43.265625 L 38.476562 -43.222656 L 38.476562 -43.265625 L 37.304688 -43.265625 C 37 -43.265625 36.78125 -43.136719 36.695312 -42.875 C 36.5625 -42.613281 36.5625 -42.394531 36.738281 -42.179688 C 36.910156 -41.917969 36.867188 -41.742188 36.695312 -41.613281 L 27.726562 -33.34375 C 27.421875 -33.082031 27.074219 -32.992188 26.726562 -32.992188 C 26.378906 -32.992188 26.074219 -33.082031 25.8125 -33.34375 L 16.714844 -41.699219 C 16.539062 -41.828125 16.539062 -41.960938 16.714844 -42.132812 C 16.886719 -42.351562 16.933594 -42.613281 16.84375 -42.875 C 16.714844 -43.136719 16.496094 -43.265625 16.191406 -43.265625 L 5.917969 -43.265625 C 5.613281 -43.265625 5.398438 -43.136719 5.308594 -42.875 C 5.179688 -42.613281 5.179688 -42.394531 5.355469 -42.179688 L 5.398438 -42.132812 C 6.050781 -41.394531 6.398438 -40.523438 6.398438 -39.566406 L 6.398438 -3.699219 C 6.398438 -2.699219 6.050781 -1.828125 5.398438 -1.132812 L 5.355469 -1.089844 C 5.179688 -0.828125 5.179688 -0.609375 5.308594 -0.347656 C 5.398438 -0.0859375 5.613281 0 5.917969 0 L 15.539062 0 C 15.800781 0 16.019531 -0.0859375 16.148438 -0.347656 C 16.234375 -0.609375 16.234375 -0.828125 16.105469 -1.089844 L 16.019531 -1.175781 C 15.320312 -1.871094 15.015625 -2.742188 15.015625 -3.742188 L 15.015625 -30.121094 C 15.015625 -30.382812 15.105469 -30.554688 15.363281 -30.644531 C 15.625 -30.730469 15.84375 -30.730469 16.0625 -30.554688 L 25.8125 -21.503906 C 26.074219 -21.242188 26.378906 -21.109375 26.769531 -21.109375 C 27.117188 -21.109375 27.464844 -21.242188 27.726562 -21.503906 L 37.476562 -30.554688 C 37.652344 -30.730469 37.867188 -30.730469 38.128906 -30.644531 C 38.390625 -30.554688 38.523438 -30.382812 38.523438 -30.121094 L 38.523438 -3.785156 C 38.523438 -2.828125 38.171875 -1.957031 37.476562 -1.21875 L 37.390625 -1.089844 C 37.214844 -0.828125 37.214844 -0.609375 37.347656 -0.347656 C 37.433594 -0.0859375 37.652344 0 37.957031 0 L 47.707031 0 C 47.96875 0 48.140625 -0.0859375 48.273438 -0.347656 C 48.359375 -0.609375 48.316406 -0.828125 48.140625 -1.089844 C 47.445312 -1.785156 47.140625 -2.65625 47.140625 -3.65625 Z M 47.140625 -3.65625 "/></g></g></g><g fill="#fffaef" fill-opacity="1"><g transform="translate(679.363326, 397.618043)"><g><path d="M 15.058594 -3.832031 L 15.058594 -39.4375 C 15.058594 -40.480469 15.410156 -41.394531 16.105469 -42.179688 C 16.234375 -42.394531 16.234375 -42.613281 16.148438 -42.875 C 16.019531 -43.136719 15.800781 -43.265625 15.539062 -43.265625 L 5.917969 -43.265625 C 5.613281 -43.265625 5.398438 -43.136719 5.308594 -42.875 C 5.179688 -42.613281 5.179688 -42.394531 5.355469 -42.179688 C 6.050781 -41.394531 6.441406 -40.480469 6.441406 -39.4375 L 6.441406 -3.832031 C 6.441406 -2.785156 6.050781 -1.871094 5.355469 -1.089844 C 5.179688 -0.828125 5.179688 -0.609375 5.308594 -0.347656 C 5.398438 -0.0859375 5.613281 0 5.917969 0 L 15.539062 0 C 15.800781 0 16.019531 -0.0859375 16.148438 -0.347656 C 16.234375 -0.609375 16.234375 -0.828125 16.105469 -1.089844 C 15.757812 -1.4375 15.496094 -1.871094 15.320312 -2.351562 C 15.148438 -2.828125 15.058594 -3.308594 15.058594 -3.832031 Z M 15.058594 -3.832031 "/></g></g></g><g fill="#fffaef" fill-opacity="1"><g transform="translate(700.865917, 397.618043)"><g><path d="M 31.6875 -43.570312 C 30.949219 -42.875 30.078125 -42.570312 29.121094 -42.570312 L 5.917969 -42.570312 C 5.613281 -42.570312 5.398438 -42.4375 5.308594 -42.179688 C 5.179688 -41.917969 5.179688 -41.699219 5.355469 -41.480469 L 5.484375 -41.351562 C 6.179688 -40.566406 6.527344 -39.652344 6.527344 -38.609375 L 6.527344 -3.265625 C 6.527344 -2.742188 6.441406 -2.261719 6.269531 -1.785156 C 6.09375 -1.304688 5.832031 -0.871094 5.484375 -0.523438 L 5.355469 -0.390625 C 5.179688 -0.128906 5.179688 0.0859375 5.308594 0.347656 C 5.398438 0.609375 5.613281 0.695312 5.917969 0.695312 L 29.121094 0.695312 C 30.078125 0.695312 30.949219 1.042969 31.6875 1.699219 C 31.90625 1.914062 32.167969 1.957031 32.429688 1.828125 C 32.6875 1.742188 32.863281 1.523438 32.863281 1.175781 L 32.863281 -8.53125 C 32.863281 -8.792969 32.734375 -9.011719 32.472656 -9.140625 C 32.210938 -9.226562 31.949219 -9.183594 31.773438 -9.011719 C 30.992188 -8.269531 30.078125 -7.921875 29.03125 -7.921875 L 16.234375 -7.921875 C 15.929688 -7.921875 15.667969 -8.007812 15.453125 -8.226562 C 15.234375 -8.402344 15.148438 -8.660156 15.148438 -9.011719 L 15.148438 -15.539062 C 15.148438 -15.84375 15.234375 -16.105469 15.453125 -16.324219 C 15.667969 -16.496094 15.929688 -16.628906 16.234375 -16.628906 L 20.066406 -16.628906 C 21.109375 -16.628906 22.023438 -16.234375 22.808594 -15.539062 C 23.027344 -15.363281 23.242188 -15.363281 23.503906 -15.496094 C 23.765625 -15.625 23.894531 -15.84375 23.894531 -16.105469 L 23.894531 -25.769531 C 23.894531 -26.027344 23.765625 -26.203125 23.503906 -26.332031 C 23.242188 -26.464844 23.027344 -26.464844 22.808594 -26.332031 C 22.023438 -25.59375 21.109375 -25.246094 20.066406 -25.246094 L 16.234375 -25.246094 C 15.929688 -25.246094 15.667969 -25.332031 15.453125 -25.550781 C 15.234375 -25.722656 15.148438 -25.984375 15.148438 -26.332031 L 15.148438 -32.863281 C 15.148438 -33.167969 15.234375 -33.429688 15.453125 -33.648438 C 15.667969 -33.820312 15.929688 -33.953125 16.234375 -33.953125 L 29.03125 -33.953125 C 30.078125 -33.953125 30.992188 -33.558594 31.773438 -32.863281 C 31.949219 -32.644531 32.210938 -32.601562 32.472656 -32.734375 C 32.734375 -32.820312 32.863281 -33.039062 32.863281 -33.34375 L 32.863281 -43.09375 C 32.863281 -43.351562 32.6875 -43.570312 32.429688 -43.703125 C 32.167969 -43.789062 31.90625 -43.746094 31.6875 -43.570312 Z M 31.6875 -43.570312 "/></g></g></g><g fill="#fffaef" fill-opacity="1"><g transform="translate(738.952511, 397.618043)"><g><path d="M 35.78125 -32.558594 L 35.5625 -32.820312 C 34.953125 -33.429688 34.5625 -34.125 34.300781 -34.910156 C 33.515625 -37.347656 31.90625 -39.347656 29.554688 -40.914062 C 28.25 -41.742188 26.769531 -42.394531 25.113281 -42.832031 C 23.460938 -43.265625 21.761719 -43.484375 19.933594 -43.484375 C 18.105469 -43.484375 16.324219 -43.222656 14.625 -42.789062 C 12.925781 -42.351562 11.402344 -41.699219 10.054688 -40.871094 C 8.226562 -39.742188 6.878906 -38.390625 5.917969 -36.78125 C 4.960938 -35.171875 4.527344 -33.429688 4.527344 -31.515625 C 4.527344 -27.859375 6.222656 -24.722656 9.707031 -22.15625 C 10.925781 -21.199219 12.230469 -20.414062 13.667969 -19.71875 C 15.105469 -19.019531 16.582031 -18.324219 18.0625 -17.714844 C 18.933594 -17.28125 19.890625 -16.84375 20.847656 -16.410156 C 21.808594 -15.972656 22.675781 -15.496094 23.460938 -15.058594 C 24.246094 -14.582031 24.898438 -14.101562 25.417969 -13.625 C 25.941406 -13.101562 26.203125 -12.621094 26.203125 -12.144531 C 26.203125 -11.535156 25.984375 -10.96875 25.550781 -10.535156 C 25.113281 -10.097656 24.550781 -9.707031 23.894531 -9.445312 C 23.242188 -9.183594 22.546875 -8.964844 21.761719 -8.835938 C 20.980469 -8.660156 20.285156 -8.617188 19.585938 -8.617188 C 18.714844 -8.617188 17.847656 -8.707031 16.886719 -8.921875 C 15.929688 -9.097656 15.105469 -9.445312 14.449219 -9.925781 C 14.277344 -10.054688 14.144531 -10.230469 14.144531 -10.445312 C 14.101562 -10.664062 14.144531 -10.839844 14.320312 -11.011719 L 14.363281 -11.054688 C 14.496094 -11.273438 14.496094 -11.492188 14.40625 -11.753906 C 14.277344 -12.011719 14.058594 -12.144531 13.796875 -12.144531 L 4.179688 -12.144531 C 3.875 -12.144531 3.65625 -12.011719 3.570312 -11.753906 C 3.4375 -11.492188 3.4375 -11.273438 3.613281 -11.054688 L 3.785156 -10.882812 C 4.394531 -10.183594 4.789062 -9.445312 5.050781 -8.707031 C 5.832031 -6.179688 7.398438 -4.179688 9.835938 -2.65625 C 11.144531 -1.785156 12.667969 -1.132812 14.320312 -0.695312 C 15.972656 -0.21875 17.757812 0 19.585938 0 C 21.761719 0 23.808594 -0.304688 25.679688 -0.914062 C 27.550781 -1.523438 29.164062 -2.351562 30.511719 -3.4375 C 31.863281 -4.484375 32.90625 -5.789062 33.691406 -7.269531 C 34.429688 -8.75 34.820312 -10.359375 34.820312 -12.144531 C 34.820312 -14.015625 34.386719 -15.667969 33.558594 -17.0625 C 32.734375 -18.457031 31.6875 -19.675781 30.382812 -20.71875 C 29.078125 -21.761719 27.683594 -22.632812 26.117188 -23.417969 C 24.550781 -24.199219 23.027344 -24.898438 21.546875 -25.59375 C 20.542969 -26.027344 19.542969 -26.464844 18.542969 -26.941406 C 17.542969 -27.378906 16.628906 -27.859375 15.84375 -28.378906 C 15.058594 -28.859375 14.40625 -29.382812 13.886719 -29.902344 C 13.363281 -30.425781 13.144531 -30.949219 13.144531 -31.515625 C 13.144531 -31.992188 13.320312 -32.429688 13.753906 -32.863281 C 14.144531 -33.296875 14.667969 -33.648438 15.320312 -33.953125 C 15.929688 -34.210938 16.671875 -34.429688 17.496094 -34.605469 C 18.28125 -34.777344 19.109375 -34.867188 19.933594 -34.867188 C 20.894531 -34.867188 21.851562 -34.734375 22.722656 -34.5625 C 23.589844 -34.34375 24.289062 -34.039062 24.898438 -33.648438 C 25.070312 -33.515625 25.203125 -33.34375 25.203125 -33.125 C 25.203125 -32.90625 25.160156 -32.734375 25.027344 -32.601562 L 25.027344 -32.558594 C 24.855469 -32.296875 24.855469 -32.078125 24.984375 -31.863281 C 25.070312 -31.601562 25.289062 -31.515625 25.59375 -31.515625 L 35.214844 -31.515625 C 35.476562 -31.515625 35.691406 -31.601562 35.824219 -31.863281 C 35.910156 -32.078125 35.910156 -32.296875 35.78125 -32.558594 Z M 35.78125 -32.558594 "/></g></g></g></svg>